<?xml version="1.0" standalone="no"?>
<!DOCTYPE svg PUBLIC "-//W3C//DTD SVG 20010904//EN"
 "http://www.w3.org/TR/2001/REC-SVG-20010904/DTD/svg10.dtd">
<svg version="1.0" xmlns="http://www.w3.org/2000/svg"
 width="43.000000pt" height="34.000000pt" viewBox="0 0 43.000000 34.000000"
 preserveAspectRatio="xMidYMid meet">
<metadata>
Created by potrace 1.10, written by Peter Selinger 2001-2011
</metadata>
<g transform="translate(0.000000,34.000000) scale(0.100000,-0.100000)"
fill="#000000" stroke="none">
<path d="M136 267 c-22 -22 -26 -35 -26 -87 0 -51 4 -65 25 -85 20 -21 34 -25
85 -25 51 0 65 4 85 25 21 20 25 34 25 83 0 86 -18 105 -103 110 -60 4 -68 2
-91 -21z m155 -7 c16 -9 19 -22 19 -80 0 -81 -9 -90 -90 -90 -81 0 -90 9 -90
90 0 55 4 71 18 79 22 14 118 14 143 1z"/>
<path d="M205 200 c-18 -20 -18 -21 3 -42 12 -12 25 -19 28 -15 4 4 -1 14 -12
21 -18 14 -18 15 0 35 11 12 15 21 9 21 -5 0 -18 -9 -28 -20z"/>
</g>
</svg>
