<svg width="52" height="86" viewBox="0 0 52 86" fill="none" xmlns="http://www.w3.org/2000/svg">
<path d="M10.3333 86C7.49167 86 5.05903 84.9474 3.03542 82.8422C1.01181 80.737 0 78.2063 0 75.25C0 72.2938 1.01181 69.763 3.03542 67.6578C5.05903 65.5526 7.49167 64.5 10.3333 64.5C13.175 64.5 15.6076 65.5526 17.6312 67.6578C19.6549 69.763 20.6667 72.2938 20.6667 75.25C20.6667 78.2063 19.6549 80.737 17.6312 82.8422C15.6076 84.9474 13.175 86 10.3333 86ZM41.3333 86C38.4917 86 36.059 84.9474 34.0354 82.8422C32.0118 80.737 31 78.2063 31 75.25C31 72.2938 32.0118 69.763 34.0354 67.6578C36.059 65.5526 38.4917 64.5 41.3333 64.5C44.175 64.5 46.6076 65.5526 48.6312 67.6578C50.6549 69.763 51.6667 72.2938 51.6667 75.25C51.6667 78.2063 50.6549 80.737 48.6312 82.8422C46.6076 84.9474 44.175 86 41.3333 86ZM10.3333 53.75C7.49167 53.75 5.05903 52.6974 3.03542 50.5922C1.01181 48.487 0 45.9563 0 43C0 40.0438 1.01181 37.513 3.03542 35.4078C5.05903 33.3026 7.49167 32.25 10.3333 32.25C13.175 32.25 15.6076 33.3026 17.6312 35.4078C19.6549 37.513 20.6667 40.0438 20.6667 43C20.6667 45.9563 19.6549 48.487 17.6312 50.5922C15.6076 52.6974 13.175 53.75 10.3333 53.75ZM41.3333 53.75C38.4917 53.75 36.059 52.6974 34.0354 50.5922C32.0118 48.487 31 45.9563 31 43C31 40.0438 32.0118 37.513 34.0354 35.4078C36.059 33.3026 38.4917 32.25 41.3333 32.25C44.175 32.25 46.6076 33.3026 48.6312 35.4078C50.6549 37.513 51.6667 40.0438 51.6667 43C51.6667 45.9563 50.6549 48.487 48.6312 50.5922C46.6076 52.6974 44.175 53.75 41.3333 53.75ZM10.3333 21.5C7.49167 21.5 5.05903 20.4474 3.03542 18.3422C1.01181 16.237 0 13.7063 0 10.75C0 7.79375 1.01181 5.26302 3.03542 3.15781C5.05903 1.0526 7.49167 0 10.3333 0C13.175 0 15.6076 1.0526 17.6312 3.15781C19.6549 5.26302 20.6667 7.79375 20.6667 10.75C20.6667 13.7063 19.6549 16.237 17.6312 18.3422C15.6076 20.4474 13.175 21.5 10.3333 21.5ZM41.3333 21.5C38.4917 21.5 36.059 20.4474 34.0354 18.3422C32.0118 16.237 31 13.7063 31 10.75C31 7.79375 32.0118 5.26302 34.0354 3.15781C36.059 1.0526 38.4917 0 41.3333 0C44.175 0 46.6076 1.0526 48.6312 3.15781C50.6549 5.26302 51.6667 7.79375 51.6667 10.75C51.6667 13.7063 50.6549 16.237 48.6312 18.3422C46.6076 20.4474 44.175 21.5 41.3333 21.5Z" fill="black" fill-opacity="0.25"/>
</svg>
