<svg width="34" height="24" viewBox="0 0 34 24" fill="none" xmlns="http://www.w3.org/2000/svg">
<path d="M7.55556 4.8V0H34V4.8H7.55556ZM7.55556 14.4V9.6H34V14.4H7.55556ZM7.55556 24V19.2H34V24H7.55556ZM1.88889 4.8C1.3537 4.8 0.905093 4.57 0.543056 4.11C0.181019 3.65 0 3.08 0 2.4C0 1.72 0.181019 1.15 0.543056 0.69C0.905093 0.23 1.3537 0 1.88889 0C2.42407 0 2.87269 0.23 3.23472 0.69C3.59676 1.15 3.77778 1.72 3.77778 2.4C3.77778 3.08 3.59676 3.65 3.23472 4.11C2.87269 4.57 2.42407 4.8 1.88889 4.8ZM1.88889 14.4C1.3537 14.4 0.905093 14.17 0.543056 13.71C0.181019 13.25 0 12.68 0 12C0 11.32 0.181019 10.75 0.543056 10.29C0.905093 9.83 1.3537 9.6 1.88889 9.6C2.42407 9.6 2.87269 9.83 3.23472 10.29C3.59676 10.75 3.77778 11.32 3.77778 12C3.77778 12.68 3.59676 13.25 3.23472 13.71C2.87269 14.17 2.42407 14.4 1.88889 14.4ZM1.88889 24C1.3537 24 0.905093 23.77 0.543056 23.31C0.181019 22.85 0 22.28 0 21.6C0 20.92 0.181019 20.35 0.543056 19.89C0.905093 19.43 1.3537 19.2 1.88889 19.2C2.42407 19.2 2.87269 19.43 3.23472 19.89C3.59676 20.35 3.77778 20.92 3.77778 21.6C3.77778 22.28 3.59676 22.85 3.23472 23.31C2.87269 23.77 2.42407 24 1.88889 24Z" fill="#E8EAED"/>
</svg>
