<svg width="30" height="22" viewBox="0 0 30 22" fill="none" xmlns="http://www.w3.org/2000/svg">
<path d="M15.225 22C13.325 22 11.6375 21.4892 10.1625 20.4675C8.6875 19.4458 7.625 18.0495 6.975 16.2786L10.275 14.9845C10.625 16.0743 11.2313 16.9711 12.0938 17.6749C12.9563 18.3787 14.025 18.7307 15.3 18.7307C16.35 18.7307 17.3 18.5036 18.15 18.0495C19 17.5955 19.425 16.8689 19.425 15.87C19.425 15.4613 19.3375 15.0867 19.1625 14.7461C18.9875 14.4056 18.75 14.0991 18.45 13.8266H22.65C22.775 14.1445 22.8688 14.468 22.9313 14.7972C22.9938 15.1264 23.025 15.484 23.025 15.87C23.025 17.8225 22.2563 19.3323 20.7188 20.3994C19.1813 21.4665 17.35 22 15.225 22ZM0 11.1022V8.37771H30V11.1022H0ZM15.075 0C16.725 0 18.1688 0.368937 19.4063 1.10681C20.6438 1.84469 21.6 2.9742 22.275 4.49536L18.975 5.82353C18.75 5.16512 18.3313 4.57482 17.7188 4.05263C17.1063 3.53044 16.25 3.26935 15.15 3.26935C14.125 3.26935 13.275 3.47936 12.6 3.89938C11.925 4.3194 11.55 4.90402 11.475 5.65325H7.875C7.925 4.08669 8.60625 2.75284 9.91875 1.6517C11.2313 0.550568 12.95 0 15.075 0Z" fill="#E8EAED"/>
</svg>
