<svg width="26" height="26" viewBox="0 0 26 26" fill="none" xmlns="http://www.w3.org/2000/svg">
<path d="M0 26V23.1111H26V26H0ZM13 20.2222C9.87381 20.2222 7.44405 19.4639 5.71071 17.9472C3.97738 16.4306 3.11071 14.4204 3.11071 11.9167V0H7.89286V12.1333C7.89286 13.4815 8.32619 14.5769 9.19286 15.4194C10.0595 16.262 11.3286 16.6833 13 16.6833C14.6714 16.6833 15.9405 16.262 16.8071 15.4194C17.6738 14.5769 18.1071 13.4815 18.1071 12.1333V0H22.8893V11.9167C22.8893 14.4204 22.0226 16.4306 20.2893 17.9472C18.556 19.4639 16.1262 20.2222 13 20.2222Z" fill="#E8EAED"/>
</svg>
