<svg xmlns="http://www.w3.org/2000/svg" viewBox="0 0 444 372"><path fill="#fbfbfb" stroke="#fbfbfb" d="M213.534 44.014c-18.975 12.315-23.428 13.471-40.351 10.478-17.053-3.016-23.668 1.274-30.677 19.895-5.164 13.72-10.884 19.34-25.17 24.732-15.249 5.756-21.104 13.146-19.988 25.23 1.924 20.843 1.927 21.367.157 26.996-.96 3.051-3.271 7.709-5.137 10.351-17.455 24.72-17.422 24.538-6.825 37.545 13.299 16.323 13.53 17.212 12.288 47.259-.552 13.346 4.731 19.859 20.323 25.051 13.49 4.493 19.275 10.54 24.345 25.445 5.433 15.975 14.79 21.608 30.501 18.361 14.844-3.067 25.45-.206 39.667 10.703 14.367 11.024 20.369 10.826 33.896-1.116 11.919-10.521 17.991-11.93 40.73-9.447 12.653 1.381 21.562-4.31 26.307-16.804 5.896-15.525 13.146-22.582 29.178-28.402 13.528-4.91 18.059-11.864 16.673-25.587-2.352-23.28-1.195-28.328 9.558-41.704 11.887-14.786 11.725-23.693-.679-37.185-9.616-10.46-11.069-16.806-8.9-38.888 1.635-16.65-2.468-21.836-23.718-29.974-10.652-4.079-18.597-13.607-23.215-27.839-4.615-14.221-13.201-17.832-33.497-14.089-11.337 2.09-22.993-1.371-31.785-9.44-14.517-13.324-15.501-13.37-33.681-1.571M220.5 96c-.34.55.084 1 .941 1S223 96.55 223 96s-.423-1-.941-1-1.219.45-1.559 1m43.5 16c0 .55.477 1 1.059 1s.781-.45.441-1-.816-1-1.059-1-.441.45-.441 1m-16.303 6.75c-.231.412-.715 2.1-1.074 3.75-.616 2.828-.567 2.889.862 1.059.833-1.068 1.515-2.755 1.515-3.75 0-1.881-.578-2.351-1.303-1.059m-50.618 3.833c.048 1.165.285 1.402.604.605.289-.722.253-1.585-.079-1.917-.332-.332-.568.258-.525 1.312m-17.829 3.219c-2.887.167-5.25.547-5.25.846 0 1.5 4.335 6.352 5.675 6.352.988 0 1.323.562.936 1.572-.345.898.466 2.973 1.893 4.844 3.182 4.172 3.275 3.752-2.011 9.038-2.478 2.479-4.425 4.853-4.325 5.276.1.424-.434 2.04-1.187 3.592-1.17 2.414-1.159 2.966.076 3.826 1.099.765 1.145 1.125.193 1.511-1.909.775-1.662 9.341.269 9.341 1.101 0 1.355.656.921 2.383-.471 1.875.249 3.222 3.376 6.317 5.256 5.204 10.445 6.263 30.39 6.2 16.863-.052 18.691-.698 15.922-5.63-1.088-1.938-.864-2.224-2.661 3.397-.362 1.134-.859 1.341-1.553.647-1.624-1.624 2.037-8.6 3.761-7.169 1.052.873 1.325.457 1.325-2.023 0-1.823-.52-3.128-1.25-3.137-.96-.012-.948-.207.051-.841.846-.537 1.195-2.478 1-5.558-.212-3.339-.571-4.305-1.219-3.282-.957 1.513-5.582-2.745-5.582-5.139 0-.576-.445-1.322-.989-1.658-1.084-.67-.261 2.263 1.153 4.106.589.768.109.971-1.547.654-2.18-.417-2.351-.832-1.857-4.515l.544-4.056-2.152 2.152c-1.184 1.184-2.49 2.152-2.902 2.151-1.268-.002-.527 12.212.79 13.026.669.413.907 1.252.529 1.863-.951 1.54-2.854 1.407-1.981-.138.564-1 .436-1-.641 0-.741.688-2.292 1.25-3.447 1.25-1.155 0-2.64.54-3.3 1.2-.933.933-1.2.933-1.2 0 0-.758-1.681-1.2-4.566-1.2-5.648 0-7.85-1.123-9.238-4.712-2.118-5.478.118-10.423 5.294-11.706 3.527-.874 4.456-2.071 3.738-4.817-.478-1.83-.627-1.768-1.632.691l-1.105 2.704-2.406-2.086c-1.323-1.148-2.671-1.797-2.995-1.443-.325.353-.027.844.66 1.089.688.246 1.25.907 1.25 1.47s-.605.792-1.345.508c-.739-.284-1.951.326-2.693 1.355-1.088 1.509-1.638 1.637-2.847.659-1.183-.957-1.341-.949-.748.038.424.706.259 1.25-.38 1.25-.621 0-.999-1.012-.839-2.25.159-1.238-.107-2.889-.593-3.67-.666-1.071-.474-1.263.781-.781 1.551.595 2.324-1.48 1.742-4.672-.088-.48.496-.621 1.298-.313 1.748.671 2.851-1.612 1.538-3.184-.512-.612-.646-.911-.298-.664.348.247 1.444-.544 2.436-1.759l1.805-2.207 1.008 2.5c.952 2.361 1.012 2.379 1.072.309.034-1.205.448-2.429.919-2.72.47-.291.643.583.383 1.941-.267 1.399-.002 2.47.613 2.47.597 0 .826-.675.51-1.5-.317-.825-.115-1.5.448-1.5.563 0 1.475 1.238 2.028 2.75.673 1.842 1.03 2.153 1.083.941.045-1.03.544-1.521 1.16-1.141.595.368.811 1.744.481 3.059-.339 1.35-.156 2.391.419 2.391.56 0 1.019-.498 1.019-1.107 0-.623.73-.827 1.67-.466.921.353 2.036.065 2.485-.643.539-.85.82-.39.83 1.359.008 1.454.615 2.873 1.348 3.155 1.541.591 1.885-2.458.388-3.436-.538-.351-.62-1.216-.184-1.921.909-1.471 2.921 2.5 2.564 5.059-.115.825 1.141-.495 2.791-2.934 1.649-2.438 2.83-4.707 2.623-5.042-.207-.335.478-.673 1.522-.752 1.616-.122 1.724.137.726 1.737-1.384 2.214 1.315 5.991 4.281 5.991 2.125 0 2.845-3.538 2.89-14.201.038-8.911.188-8.741-7.862-8.923-7.521-.17-7.284-.41-7.442 7.542-.087 4.355-.627 6.978-1.63 7.922-1.723 1.622-7.46 3.214-6.607 1.834.583-.945-3.165-4.882-4.185-4.397-.321.153-.693-.473-.828-1.391-.189-1.291-4.057-7.487-7.057-11.306-.427-.544-5.45-.659-12.073-.278m57.25.088c-1.653.504-2.061 1.652-2.353 6.61-.194 3.3-.529 6.29-.744 6.645-.215.355.281.903 1.103 1.219.996.382 1.504 2 1.524 4.855.026 3.569.211 3.97 1.117 2.411.877-1.51 1.254-1.606 1.955-.5.726 1.146.87 1.138.883-.051.008-.782.76-2.244 1.67-3.25.91-1.006 1.177-1.829.594-1.829-.584 0-.821-.922-.526-2.048.302-1.154 1.207-1.919 2.073-1.75 2.409.467 2.522 2.48.267 4.736-1.135 1.134-1.954 2.399-1.821 2.812.133.412-.542 1.863-1.5 3.223-.958 1.359-1.742 1.892-1.742 1.182 0-1.109-3.445-.833-4.835.387-.784.688-1.327 24.124-.695 30.018l.689 6.44h6.804c7.004 0 9.68-1.957 6.721-4.916-.596-.596-.657-1.085-.134-1.086.522-.001.981-2.015 1.019-4.476.05-3.193.652-4.982 2.106-6.248 1.244-1.084 1.93-2.746 1.764-4.274a393.46 393.46 0 0 1-.356-3.372c-.046-.48-.764-.308-1.595.382-1 .83-1.189 1.645-.558 2.406.531.64.585 1.75.122 2.5-.758 1.226-2.746-2.158-2.322-3.952.07-.294-.67-.535-1.645-.535-1.38 0-1.716.708-1.519 3.195.25 3.145.224 3.166-1.656 1.286-1.051-1.051-2.36-1.91-2.91-1.91-.55 0-1-.466-1-1.035 0-.702.644-.691 2 .035 1.761.943 2 .76 2-1.524 0-1.427-.419-2.335-.931-2.019-.512.317-1.173.184-1.469-.294-.295-.479.574-1.377 1.931-1.995 1.358-.619 2.469-1.611 2.469-2.206 0-.594.437-.81.971-.48 1.995 1.233 3.623-15.009 1.746-17.419-1.036-1.33-.987-1.384.329-.36 1.762 1.371 6.523 1.128 8.063-.412.708-.708 2.81-.482 6.711.724 14.803 4.574 10.161 19.483-5.517 17.716-5.653-.638-8.586.09-7.871 1.952.3.782.147 1.175-.339.875-.486-.301-1.15.149-1.477 1-.34.885-.171 1.285.395.935.544-.336.989-.079.989.57 0 .886.342.898 1.367.047 1.04-.863 1.668-.773 2.623.378 1.709 2.059 2.752 1.899 3.527-.541.504-1.589.956-1.8 2-.933 1.03.855 1.839.63 3.416-.947C264.099 157.901 267 157.29 267 159c0 2.953 7.96-3.504 8.013-6.5.021-1.185 1.949 1.609 1.972 2.857.008.471-.773.583-1.735.248-1.553-.541-1.542-.448.1.826 1.033.802 1.53 1.954 1.125 2.61-.509.823-.092.972 1.4.499 1.308-.416 2.125-.242 2.125.452 0 .619-.418.868-.928.552-.51-.315-1.252.446-1.648 1.691-.696 2.189-.746 2.198-1.502.265-.713-1.826-.798-1.782-.97.5-.104 1.375-.136 2.838-.07 3.25.168 1.068-1.304.928-2.468-.236-.647-.647-.985-.304-.985 1 0 1.092.353 1.986.785 1.986.432 0 .786.477.786 1.059s-.562.774-1.25.426c-.687-.348-.462.012.5.801 1.989 1.63 2.294 2.835.625 2.464-.619-.137-1.355.384-1.636 1.159-.36.99-.009 1.217 1.176.762.929-.357 1.438-.242 1.131.255-.307.497.007 1.132.698 1.412 1.366.554-.8 2.631-2.744 2.631-.55 0-.384-.39.37-.867 1.114-.706 1.039-1.054-.4-1.859-1.244-.696-1.591-1.695-1.169-3.367.551-2.182.489-2.229-.75-.573-1.258 1.682-1.412 1.615-2.285-1l-.935-2.803-.523 2.728c-.395 2.063-.07 2.872 1.335 3.317 1.901.604 2.601 2.455.928 2.455-1.922 0-3.8-2.968-3.354-5.302.326-1.702-.081-2.622-1.377-3.116-1.476-.562-1.593-.451-.59.559 1.47 1.48 1.63 2.859.333 2.859-.504 0-1.368-1.238-1.921-2.75-.552-1.512-1.04-2.187-1.083-1.5-.043.688-.578 1.25-1.187 1.25-.683 0-.868-.96-.481-2.5.622-2.479-.696-3.465-1.941-1.451-.443.716-1.094.678-2.059-.123-.776-.644-1.411-.774-1.411-.289 0 .485.944 1.471 2.097 2.192 1.154.72 1.857 1.551 1.562 1.845-.295.295.484 1.501 1.729 2.681 1.246 1.18 3.064 3.52 4.04 5.201.976 1.682 2.742 3.482 3.923 4 1.182.519 2.149 1.844 2.149 2.944 0 1.826.763 2.025 8.75 2.289 9.824.324 10.332-.127 6-5.323-1.512-1.814-4.071-5.435-5.685-8.046l-2.935-4.748 3-2.586c10.078-8.689 11.492-24.438 3.023-33.665-1.726-1.882-3.93-3.421-4.896-3.421-.966 0-1.757-.395-1.757-.878 0-2.235-7.893-2.927-11.475-1.007-3.516 1.884-3.525 1.884-3.525-.22 0-1.512-.448-1.937-1.582-1.502-.87.334-3.596.607-6.059.607-3.315 0-4.282.324-3.726 1.25.598.995.439.998-.775.015-1.817-1.47-7.551-2.231-10.358-1.375m-5.926 2.36c-2.396 3.66-3.049 10.111-1.181 11.661 2.038 1.692 2.409.68 2.808-7.663.339-7.093.362-7.037-1.627-3.998M238 128c0 .55.45 1 1 1s1-.45 1-1-.45-1-1-1-1 .45-1 1m3.583 1.643c-.346.904-.333 1.916.03 2.25.364.334.863.042 1.109-.649.247-.691.855-1.005 1.352-.698.497.307.635-.14.308-.994-.775-2.018-2.005-1.977-2.799.091m22.583-.767c-1.063.674-.994.976.34 1.488 1.846.708 3.494.037 3.494-1.423 0-1.163-2.047-1.198-3.834-.065M184 130.079c0 .571.419.78.931.464a1.092 1.092 0 0 1 1.501.347c.313.507 1.487.682 2.609.389 2.631-.688 1.834-1.439-2.001-1.886-1.672-.195-3.04.114-3.04.686m33 .921c-.901.582-1.025.975-.309.985.655.008 1.469-.435 1.809-.985.767-1.242.421-1.242-1.5 0m31 0c0 .55.45 1 1 1s1-.45 1-1-.45-1-1-1-1 .45-1 1m-2.515 1.025c-.408.659-.121 1.584.637 2.055 1.663 1.033 2.559-.799 1.103-2.255-.666-.666-1.246-.599-1.74.2m11.185 1.394c-.321.834-.193 1.758.283 2.052 1.332.823 4.179-.575 3.756-1.844-.583-1.753-3.391-1.898-4.039-.208m-70.527.471c-.961.609-1.029 1.062-.233 1.554.617.382.821 1.183.452 1.78-.414.669-.202.795.552.329.672-.415.992-1.356.71-2.09-.281-.733.026-1.552.682-1.819.657-.268.744-.515.194-.55-.55-.035-1.611.323-2.357.796M215 135c0 1.289.506 1.998 1.25 1.75.688-.229 1.25-1.017 1.25-1.75 0-.733-.562-1.521-1.25-1.75-.744-.248-1.25.461-1.25 1.75m4.432-.89c-.893 1.444-.241 1.751 1.995.939 1.694-.615 1.728-.776.282-1.33-.905-.348-1.929-.171-2.277.391m29.568.39c0 .825.375 1.5.833 1.5.459 0 .834-.675.834-1.5s-.375-1.5-.834-1.5c-.458 0-.833.675-.833 1.5m-7.422.374c-.284.459.596 1.34 1.953 1.958 1.358.619 2.469.793 2.469.387 0-1.203-3.862-3.251-4.422-2.345M238 136c0 .55.45 1 1 1s1-.45 1-1-.45-1-1-1-1 .45-1 1m-50.25 2.083c-.963 1.054-1.75 2.102-1.75 2.329 0 1.567 3.565-.535 3.82-2.253.38-2.568.211-2.574-2.07-.076M192 137c-.825.533-1.05.969-.5.969s1.675-.436 2.5-.969c.825-.533 1.05-.969.5-.969s-1.675.436-2.5.969m81.667 1.667c-1.023 1.022-.792 3.333.333 3.333.55 0 1.007-.787 1.015-1.75.013-1.494.156-1.531.977-.25.53.825.717 2.287.418 3.25-.3.963-.064 1.75.523 1.75s1.067-.477 1.067-1.059.45-.781 1-.441 1 .127 1-.472c0-.6-.675-1.35-1.5-1.666-.825-.317-1.5-1.203-1.5-1.969 0-1.437-2.154-1.906-3.333-.726M233 142.559c0 .857.45 1.281 1 .941.55-.34 1-1.041 1-1.559s-.45-.941-1-.941-1 .702-1 1.559m5 1.5c0 .582.45.781 1 .441s1-.816 1-1.059-.45-.441-1-.441-1 .477-1 1.059m37.639 3.439c-.893 2.327-.832 2.502.861 2.502 1.683 0 1.873-.863.624-2.834-.675-1.064-.975-.997-1.485.332m-74.215 2.585c-2.514 2.779-.29 5.917 4.195 5.917 2.416 0 3.401-.399 3.089-1.25-.252-.687-.964-1.137-1.583-1S206 153.55 206 153s.454-1 1.008-1c.629 0 .577-.691-.136-1.833-1.441-2.307-3.408-2.337-5.448-.084m-14.611-.4c.721.289 1.584.253 1.916-.079.332-.332-.258-.568-1.312-.525-1.165.048-1.402.285-.604.604m91.33 1.207c-.746.473-.971 1.094-.5 1.38.471.286 1.437-.108 2.146-.875 1.429-1.546.464-1.842-1.646-.505m-37.643 1.693c-1.65.768-2.084 1.177-.964.908 1.517-.365 2.035.005 2.035 1.454 0 1.471-.313 1.684-1.285.877-.958-.795-1.286-.653-1.286.556 0 3.135 3.708 1.834 4.382-1.538.787-3.937.764-3.956-2.882-2.257M180 153c0 .55.477 1 1.059 1s.781-.45.441-1-.816-1-1.059-1-.441.45-.441 1m43.192 2.776c-3.067.503-2.303 2.436 1.106 2.799 1.764.189 2.702-.188 2.702-1.084 0-1.762-.94-2.185-3.808-1.715m56.808.283c0 .582.45.781 1 .441s1-.816 1-1.059-.45-.441-1-.441-1 .477-1 1.059M178 157c0 .55.45 1 1 1s1-.45 1-1-.45-1-1-1-1 .45-1 1m21.393 1.582c.334.87.614 1.882.622 2.25.021.894 1.95-2.125 1.97-3.082.008-.412-.708-.75-1.592-.75-1.055 0-1.398.544-1 1.582M268 158c0 .55.45 1 1 1s1-.45 1-1-.45-1-1-1-1 .45-1 1m-118 1c0 .55.45 1 1 1s1-.45 1-1-.45-1-1-1-1 .45-1 1m95.149.667c-.743.805-1.144 1.671-.892 1.923.252.252 1.036-.238 1.743-1.09 1.669-2.011.916-2.749-.851-.833M184 161.571c0 2.286.167 2.405 1.5 1.072.825-.825 1.5-1.982 1.5-2.572 0-.589-.675-1.071-1.5-1.071-.944 0-1.5.952-1.5 2.571m69-1.512c0 .582.45.781 1 .441s1-.816 1-1.059-.45-.441-1-.441-1 .477-1 1.059m-14.921 1.524c.048 1.165.285 1.402.604.605.289-.722.253-1.585-.079-1.917-.332-.332-.568.258-.525 1.312m-82.464 1.882c-1.459 2.227-1.503 2.856-.318 4.548 1.308 1.868 1.425 1.799 2.413-1.42 1.403-4.572.113-6.499-2.095-3.128M179 162c0 .55.477 1 1.059 1s.781-.45.441-1-.816-1-1.059-1-.441.45-.441 1m56 1c0 .55.45 1 1 1s1-.45 1-1-.45-1-1-1-1 .45-1 1m-52.969.5c0 .55.436 1.675.969 2.5.533.825.969 1.05.969.5s-.436-1.675-.969-2.5c-.533-.825-.969-1.05-.969-.5m36.026 1.393c-.787 1.471-.593 2.195.871 3.25 1.383.996 1.662 1.889 1.048 3.357-.744 1.781-.843 1.802-.906.191-.043-1.104-.52-1.531-1.225-1.096-.689.426-.884.276-.483-.371.369-.597.26-1.339-.241-1.649-1.053-.651-2.192 1.726-2.716 5.668-.237 1.784.066 2.658.865 2.5.677-.134 1.123.303.992.971-.138.702.39.973 1.25.643 1.932-.741 1.923-2.357-.012-2.357-.825 0-1.5-.408-1.5-.906 0-.499.843-.686 1.873-.417 2.147.561 5.189-5.823 3.105-6.518-.618-.206-.309-.954.719-1.741 1.572-1.203 1.61-1.509.303-2.384-2.135-1.428-2.796-1.284-3.943.859M213 167c0 .55.45 1 1 1s1-.45 1-1-.45-1-1-1-1 .45-1 1m21.5 0c.34.55 1.041 1 1.559 1s.941-.45.941-1-.702-1-1.559-1-1.281.45-.941 1m-52.5 2.059c0 .582-.45.781-1 .441s-1-.168-1 .382c0 1.543 2.142 2.506 2.888 1.299.414-.669 1.211-.738 2.11-.182 1.22.754 1.177.997-.276 1.554-.947.364-1.722 1.063-1.722 1.554 0 1.424 1.712 1.038 3.55-.8 1.59-1.59 1.557-1.802-.54-3.5-2.516-2.038-4.01-2.316-4.01-.748m57.074 1.352c-.801.965-.839 1.616-.123 2.059 1.397.863 3.049-.237 3.049-2.029 0-1.836-1.415-1.851-2.926-.03M194 175.941c0 2.186 1.504 3.484 2.98 2.572.616-.382.527-1.329-.241-2.559-1.557-2.494-2.739-2.499-2.739-.013m16.873-1.275c-.905.241-1.866 1.854-2.165 3.634-.296 1.76-.873 4.049-1.282 5.086-.547 1.386-.37 1.757.665 1.397.775-.27 1.274-1.241 1.11-2.159-.327-1.826 2.183-4.907 3.183-3.907.342.342.522-.579.401-2.048-.122-1.468-.236-2.617-.253-2.553-.018.064-.764.311-1.659.55m-29.105 1.502c.582.582 1.647.86 2.369.62.749-.25.295-.703-1.057-1.057-1.663-.435-2.054-.305-1.312.437m19.569 3c.147 2.867 2.663 5.565 2.663 2.856 0-.632.535-.812 1.197-.402.658.406.177-.692-1.068-2.441-2.807-3.942-2.994-3.943-2.792-.013m36.109-1.081c-.369.598-.21 1.549.354 2.113 1.262 1.262 3.2.196 3.2-1.759 0-1.684-2.574-1.94-3.554-.354m-8.492 4.674c-1.563 5.214-.571 8.771 1.617 5.798 1.607-2.182 1.853-6.341.503-8.473-.663-1.048-1.213-.354-2.12 2.675M210 182c0 .55.45 1 1 1s1-.45 1-1-.45-1-1-1-1 .45-1 1m5.733 1.124c.679.684 1.486.991 1.793.683.308-.308-.247-.867-1.233-1.243-1.425-.542-1.54-.428-.56.56M237 183c-.793.49-1.217 1.116-.942 1.391.275.275 1.149.099 1.942-.391.793-.49 1.217-1.116.942-1.391-.275-.275-1.149-.099-1.942.391m37.5 0c-.34.55-.141 1 .441 1s1.059-.45 1.059-1-.198-1-.441-1-.719.45-1.059 1m-60.833 5.667c-.367.366-.667 1.771-.667 3.122 0 2.07.236 2.26 1.5 1.211.825-.685 1.5-2.09 1.5-3.122 0-1.887-1.092-2.453-2.333-1.211m30.777 10.777c-.376 2.007-.434 3.899-.129 4.205.306.305.864-1.087 1.241-3.093.376-2.007.434-3.899.129-4.205-.306-.305-.864 1.087-1.241 3.093m-34.686 4.938c-.929 1.948-1.307 3.779-.84 4.067 1.004.621 3.452-4.838 2.906-6.478-.208-.622-1.137.463-2.066 2.411M251 209c0 .55.45 1 1 1s1-.45 1-1-.45-1-1-1-1 .45-1 1m-100.982 7.466c-1.07 2-1.079 2.756-.046 4 .867 1.045.915 1.534.15 1.534-.77 0-1.122 3.924-1.122 12.5V247h8v-4.031c0-4.308 1.599-5.795 4.75-4.418.963.42 2.425.675 3.25.565 1.25-.166 1.268-.043.108.739-2.772 1.869 2.349 7.145 6.935 7.145 3.849 0 3.892-.041 2.863-2.748-.575-1.512-1.747-3.524-2.605-4.471-1.428-1.578-1.295-2.023 1.57-5.287C177.016 230.912 178.535 222 176 222c-.55 0-1-.89-1-1.977 0-2.195-3.047-4.53-7.261-5.567-2.351-.578-2.662-.419-2.091 1.069.478 1.245.265 1.601-.739 1.236-.775-.281-1.296-1.017-1.159-1.636.165-.741-1.91-1.125-6.081-1.125-5.706 0-6.461.243-7.651 2.466M183 218.571c0 2.936.597 5.169 1.669 6.241 1.558 1.558 1.621 1.478.949-1.198-.575-2.289-.424-2.753.748-2.304a1.588 1.588 0 0 0 2.04-.925c.32-.834.14-1.222-.41-.883-.539.334-1.771.098-2.738-.523-1.662-1.069-1.663-1.1-.008-.586 1.196.372 1.755 0 1.765-1.174.013-1.476.153-1.507.985-.219.533.825.991 1.05 1.016.5.026-.55.708-.126 1.516.941.807 1.068 1.468 1.379 1.468.691 0-.687.481-.953 1.068-.59.588.363.827 1.29.532 2.059-.426 1.109.792 1.399 5.872 1.399 7.079 0 7.984-.648 7.023-5.024-.627-2.855-.875-2.976-6.074-2.976-4.152 0-5.421.351-5.421 1.5 0 .825-.464 1.5-1.031 1.5-.568 0-1.291-.675-1.607-1.5-.391-1.018-1.987-1.5-4.969-1.5H183v4.571m38.001-3.472c-2.998 1.225-6.796 4.646-8.215 7.401-.815 1.582-.771 1.755.213.828.685-.644 1.87-.932 2.634-.639.996.383 1.196.028.705-1.251-.525-1.368-.306-1.64.937-1.163 1.028.395 1.458.183 1.174-.576-.605-1.613 4.274-3.922 4.93-2.334.321.778.777.693 1.451-.272 1.044-1.496 9.385-2.239 8.904-.794-.156.468-.591.705-.966.526-.375-.179-1.362.575-2.193 1.675-.913 1.208-1.524 1.482-1.543.691-.018-.72-.482-1.031-1.032-.691-1.814 1.121-1.044 2.331 1.896 2.977 1.593.35 3.662 1.483 4.598 2.517 1.605 1.773 1.896 1.788 5.104.258 3.804-1.814 4.081-2.444 1.879-4.271-1.273-1.057-1.42-.995-.893.378.696 1.814-.317 2.096-2.52.702-1.118-.708-1.175-1.223-.258-2.328 2.499-3.01-11.123-5.956-16.805-3.634m37.389.651c-.301.963-1.2 2.967-1.999 4.455-.826 1.54-1.186 3.764-.835 5.161.454 1.811.178 2.543-1.054 2.794-1.058.216-2.919 3.577-5.086 9.187-3.909 10.124-3.957 10.347-1.874 8.618 1.169-.97 1.824-.999 2.7-.123 1.811 1.811 3.339 1.374 4.56-1.306 1.095-2.405-.02-4.61-1.292-2.552-.345.559-1.078 1.016-1.628 1.016-.55 0-.691-.5-.313-1.112.378-.611.067-1.55-.691-2.087-1.02-.721-.803-.849.835-.491 1.218.266 2.684-.083 3.259-.776.81-.977.425-1.146-1.713-.752-2.712.5-2.728.474-.944-1.537 1.202-1.356 1.45-2.272.734-2.715-1.475-.911-.401-2.405 1.721-2.394 3.561.017 5.74-.876 6.053-2.48.178-.911-.159-1.656-.75-1.656-.59 0-1.073.402-1.073.893s-.607 1.126-1.349 1.411c-1.472.565-.683-6.68.881-8.094.433-.39.513.055.178.989-.423 1.181-.185 1.537.778 1.167.762-.292 1.151-1.282.865-2.199-.367-1.175.062-1.01 1.453.558l1.974 2.225.677-2.225c.512-1.682.823-1.863 1.271-.743.326.815 1.196 2.085 1.933 2.822.736.736 1.339 2.233 1.339 3.326 0 1.154.448 1.711 1.067 1.329.587-.363.983-.052.881.691-.397 2.893.098 4.94 1.052 4.35 1.594-.985 1.205-3.083-2.141-11.551L266.717 214h-3.89c-2.829 0-4.039.477-4.437 1.75m25.301.013c-.239.956-.356 8.262-.259 16.237l.176 14.5 3.696.31c3.4.286 3.696.101 3.696-2.309 0-1.845-.37-2.388-1.25-1.839-4.094 2.555-4.864 1.613-4.65-5.696.113-3.87.608-7.286 1.101-7.59.493-.305.348-1.214-.322-2.021-.67-.808-.804-1.389-.298-1.293 2.252.428 3.418-.192 3.404-1.812-.013-1.468-.166-1.513-.946-.279-.512.809-1.225 1.177-1.585.817-1.13-1.131.638-2.897 2.589-2.586 1.026.164 1.787-.152 1.691-.702-.096-.55-.797-.857-1.557-.683-2.871.66-4.337-.649-3.17-2.83.601-1.124 1.59-1.736 2.198-1.36.699.432.818.22.324-.58-.586-.947-.189-1.074 1.596-.507 1.306.415 4.176.829 6.378.919 5.88.243 8.531 1.878 5.803 3.582-1.911 1.194-1.939 1.436-.462 4.01 2.114 3.683.362 7.949-3.264 7.949-1.354 0-2.783.52-3.175 1.155-.441.712-.275.883.433.445.63-.389 1.871-.303 2.756.193 1.95 1.091-2.785 5.455-4.998 4.606-.701-.27-1.853.205-2.558 1.055-.792.955-.876 1.546-.219 1.546.584 0 1.286-.36 1.558-.801.272-.44 2.436-.906 4.809-1.034 6.051-.328 7.987-1.072 10.564-4.058 4.601-5.332 3.663-14.216-1.943-18.402-3.837-2.864-21.446-3.614-22.116-.942M153.5 216c-.34.55-.141 1 .441 1s1.059-.45 1.059-1-.198-1-.441-1-.719.45-1.059 1m17.5 2c0 .55.45 1 1 1s1-.45 1-1-.45-1-1-1-1 .45-1 1m24.667-.333c-.367.366-.667 1.131-.667 1.7 0 .626.466.567 1.183-.15.651-.651.951-1.416.667-1.7-.284-.285-.817-.217-1.183.15m4.333.392c0 .582.45.781 1 .441s1-.816 1-1.059-.45-.441-1-.441-1 .477-1 1.059m-45.5.706c-1.752 1.288-3.894 5.589-2.324 4.668.728-.427.467.201-.581 1.395-1.662 1.894-1.697 2.172-.276 2.172 1.727 0 5.038-5.31 3.974-6.373-.344-.345.124-.627 1.04-.627.917 0 1.667-.45 1.667-1 0-1.163-2.049-1.3-3.5-.235m48.5.735c0 .825.436 1.5.969 1.5.532 0 .709-.675.393-1.5-.317-.825-.753-1.5-.969-1.5-.216 0-.393.675-.393 1.5m94-.667c0 .642-1.012 1.219-2.25 1.283-1.852.095-1.922.201-.394.594 1.995.513 4.455-1.232 3.327-2.36-.375-.376-.683-.158-.683.483m-75.544 2.913c.407 1.059.06 1.361-1.191 1.034-1.377-.361-1.765.155-1.765 2.347v2.808l2.322-2.967c1.278-1.633 2.965-2.968 3.75-2.968.786 0 1.428-.394 1.428-.875s-1.152-.875-2.559-.875c-1.86 0-2.402.408-1.985 1.496m-63.952.504c-.238.688-.562 2.6-.719 4.25-.157 1.65-1.185 3.773-2.285 4.717-1.542 1.323-1.657 1.731-.5 1.782 1.197.051 1.135.342-.31 1.437-1.282.972-1.468 1.583-.638 2.096.644.398 1.515.169 1.935-.511.545-.882.959-.917 1.449-.124.385.623 1.757.842 3.125.498 1.487-.373 2.439-.179 2.439.497 0 .609.873 1.108 1.941 1.108s2.238.481 2.601 1.068c.363.588 1.22.854 1.903.591.846-.324 1.096.292.782 1.932-.253 1.325.016 2.409.597 2.409 1.832 0 2.243-1.758 1.032-4.416-1.036-2.275-.863-2.849 1.539-5.075 1.49-1.38 2.265-2.509 1.724-2.509-.541 0-1.28-.931-1.641-2.069-.627-1.976-.716-1.987-1.986-.252-.73 1-1.673 1.474-2.094 1.053-.42-.421-.232-1.298.419-1.949 3.161-3.161-.906-7.783-6.848-7.783-2.328 0-4.215.528-4.465 1.25m12.496-.191c0 .582.45.781 1 .441s1-.816 1-1.059-.45-.441-1-.441-1 .477-1 1.059m19 .441c-.718.865-.815 1.5-.229 1.5.558 0 1.274-.675 1.591-1.5.316-.825.419-1.5.229-1.5-.19 0-.906.675-1.591 1.5m113-.441c0 .582.45.781 1 .441s1-.816 1-1.059-.45-.441-1-.441-1 .477-1 1.059m-129.531.991c-.918 1.486-.188 2.012 1.417 1.021.859-.532.962-1.047.29-1.462-.571-.353-1.339-.154-1.707.441M305 225.559c0 .857.45 1.281 1 .941.55-.34 1-1.041 1-1.559s-.45-.941-1-.941-1 .702-1 1.559M183.073 236.79l.161 10.21h7.05c7.078 0 8.741-.961 2.535-1.465-6.025-.49-8.819-1.644-8.819-3.643 0-1.041.381-1.892.847-1.892.869 0 .775-4.281-.206-9.373-1.149-5.963-1.723-3.707-1.568 6.163m12.13-8.936c-1.033.654-.972 1.093.295 2.144.876.728 1.362 1.925 1.079 2.662-.377.981.548 1.34 3.454 1.34 4.544 0 5.229-1.74 1.969-5-2.102-2.102-4.621-2.527-6.797-1.146m15.992 1.646c.02 1.65.244 2.204.498 1.231.254-.973.237-2.323-.037-3-.274-.677-.481.119-.461 1.769m-60.426.276c-.378 1.446-.133 2.224.702 2.224 1.662 0 4.024-2.838 3.117-3.745-.383-.383-1.068-.097-1.521.637-.687 1.112-.899 1.111-1.271-.003-.273-.819-.671-.475-1.027.887m154.812 1.873c-.848 2.21-.138 2.727 1.325.964.71-.855.81-1.67.247-2.018-.519-.321-1.226.153-1.572 1.054m-147.658.101c-.042.412-.227 1.537-.411 2.5-.184.963.075 1.75.576 1.75.502 0 .912-.436.912-.969 0-.532.591-.741 1.313-.464.722.277 2.142-.412 3.155-1.532 1.821-2.011 1.8-2.035-1.813-2.035-2.01 0-3.689.338-3.732.75m132.546.3c-.95 1.538.351 2.53 1.635 1.246.718-.718.735-1.277.052-1.699-.56-.346-1.319-.142-1.687.453M217 234c0 .55.505 1 1.122 1 .785 0 .811.376.085 1.25-.57.688-.995 1.7-.943 2.25.052.55-.774 1.137-1.835 1.304-1.242.195-1.509.012-.749-.516.841-.584.439-1.533-1.395-3.298l-2.575-2.479.763 2.494c1.519 4.965 6.859 9.982 9.803 9.213 1.214-.318 2.333.119 2.9 1.132 1.996 3.566 13.27.641 16.837-4.368 2.558-3.592 2.559-3.587-1.216-4.903-3.815-1.33-8.36 1.758-6.025 4.093.657.657 1.527.863 1.932.457.406-.406.167-1.091-.53-1.522-.993-.613-.932-1.063.279-2.068 1.236-1.026 1.848-1.034 3.047-.039 1.817 1.508 1.988 4.97.25 5.077-.687.042-2.037.227-3 .411-.962.184-2.132-.348-2.599-1.183-1.482-2.647-8.888-3.419-9.523-.992-.447 1.709-.766 1.817-2.1.71-.892-.74-1.326-2.083-1.003-3.102.314-.988-.01-2.724-.718-3.858-1.365-2.186-2.807-2.732-2.807-1.063m56.708 1.317c-.324.845.009 2.033.741 2.64 1.466 1.217 2.777 6.301 1.407 5.454-.471-.291-.856-1.161-.856-1.934 0-.973-.709-.724-2.304.809-3.292 3.163-2.303 4.753 2.835 4.559l4.314-.163-1.991-5.053c-2.921-7.41-3.428-8.182-4.146-6.312m17.986-.678c-.799.799.104 2.361 1.365 2.361.518 0 .941-.675.941-1.5 0-1.546-1.18-1.987-2.306-.861m9.306.861c-.86 1.036-.898 1.5-.122 1.5.617 0 1.122-.477 1.122-1.059s.52-.738 1.155-.346c.715.443.883.275.44-.44-.915-1.482-1.099-1.458-2.595.345m-41.25 3.892c-2.237 1.698-2.224 2.608.037 2.608 1.071 0 1.848-.802 1.938-2 .176-2.337.267-2.31-1.975-.608M194 241.5c.685.825.852 1.51.372 1.522-3.625.093 4.947 3.937 8.82 3.956l4.691.022-.191-3.5-.192-3.499-7.372-.001c-6.44 0-7.215.19-6.128 1.5m24.079.083c.048 1.165.285 1.402.604.605.289-.722.253-1.585-.079-1.917-.332-.332-.568.258-.525 1.312m50.394.373c.325.526 1.252.703 2.059.393 2.067-.793 1.824-1.349-.591-1.349-1.132 0-1.793.43-1.468.956M199 243c0 .55.423 1 .941 1s1.219-.45 1.559-1c.34-.55-.084-1-.941-1s-1.559.45-1.559 1m5 2c0 .55.423 1 .941 1s1.219-.45 1.559-1c.34-.55-.084-1-.941-1s-1.559.45-1.559 1m.229 7.187c.498 1.495 2.771 2.318 2.771 1.003 0-.537-.713-1.249-1.584-1.584-.973-.373-1.431-.15-1.187.581m4.298 9.133c-1.424 2.644-1.656 4.075-.927 5.709.935 2.097 1.045 2.045 2.873-1.349 1.424-2.644 1.656-4.075.927-5.709-.935-2.097-1.045-2.045-2.873 1.349m15.552 2.263c.048 1.165.285 1.402.604.605.289-.722.253-1.585-.079-1.917-.332-.332-.568.258-.525 1.312m22.19.11c.973.254 2.323.237 3-.037.677-.274-.119-.481-1.769-.461-1.65.02-2.204.244-1.231.498m-3.518 7.831c-.266 1.388-.093 2.765.383 3.059.476.294.866-.842.866-2.524 0-3.712-.593-3.967-1.249-.535" fill-rule="evenodd"/><path fill="#e4e1e7" stroke="#e4e1e7" d="M212.789 44.848c-18.595 12.069-17.812 11.9-44.448 9.564-13.129-1.151-19.307 3.506-25.187 18.986-5.381 14.165-12.489 21.554-24.62 25.591-17.041 5.67-23.236 14.437-20.693 29.28 1.412 8.245 1.486 18.014.172 22.745-1.005 3.615-3.005 6.978-13.751 23.117-8.233 12.364-8.204 12.915 1.266 24.674 13.184 16.37 15.798 24.526 12.905 40.267-3.339 18.168 1.565 25.607 21.712 32.939 11.471 4.174 18.434 11.499 21.957 23.098 5.678 18.696 14.42 23.214 36.747 18.992 9.972-1.886 21.677 2.105 33.651 11.475 14.385 11.255 20.483 11.04 34.499-1.216 11.376-9.948 21.279-12.942 32.931-9.956 15.563 3.987 29.254-1.998 32.952-14.404 4.472-15.005 14.358-24.944 29.928-30.086 12.645-4.178 18.33-12.898 16.567-25.414-2.889-20.511-.792-29.79 9.43-41.739 11.357-13.275 11.137-24.531-.719-36.767-9.316-9.614-11.274-18.488-8.714-39.494 1.728-14.183-3.302-21.569-18.624-27.35-14.813-5.588-22.226-12.339-26.218-23.876-6.663-19.254-13.756-24.032-30.769-20.728-15.629 3.036-26.432.353-37.518-9.317-14.148-12.341-15.013-12.351-33.456-.381M220 96c0 .55.9 1 2 1s2-.45 2-1-.9-1-2-1-2 .45-2 1m44 15.972c0 1.356 1.777 2.198 2.425 1.149.31-.501-.109-1.169-.931-1.485-.822-.315-1.494-.164-1.494.336M213.5 115c.34.55.816 1 1.059 1s.441-.45.441-1-.477-1-1.059-1-.781.45-.441 1m29.5-.118c0 .55.45 1.278 1 1.618.55.34 1 .168 1-.382s-.45-1.278-1-1.618c-.55-.34-1-.168-1 .382m4.743 2.761c-.279.471-.844 2.423-1.255 4.337-.824 3.834 1.762 2.995 2.781-.902.531-2.029-.708-4.817-1.526-3.435m-50.664 4.94c.048 1.165.285 1.402.604.605.289-.722.253-1.585-.079-1.917-.332-.332-.568.258-.525 1.312m84.921-.642c0 .518.45 1.219 1 1.559.55.34 1-.084 1-.941s-.45-1.559-1-1.559-1 .423-1 .941m-108 5.026c0 1.02 1.35 2.991 3 4.38 1.65 1.388 3 3.091 3 3.785 0 .693 1.169 2.947 2.598 5.009l2.597 3.749-3.671 3.223c-4.902 4.304-8.297 11.42-6.682 14.006.948 1.517.894 1.881-.278 1.881-1.949 0-1.088 8.031 1.034 9.649.959.73 1.104 1.284.399 1.519-1.622.54 2.923 6.861 6.823 9.49 1.8 1.213 3.252 2.461 3.226 2.773-.136 1.68.058 1.969.719 1.069.466-.634 6.958-.814 17.735-.492 9.35.28 18.238.198 19.75-.18 1.512-.379 2.75-.356 2.75.051 0 .406.643 1.612 1.429 2.68 1.353 1.837 1.539 1.701 3.478-2.559 1.479-3.247 2.055-3.874 2.071-2.25.021 2.131.417 2.25 7.522 2.25h7.5v-7.3c0-7.72.921-9.7 4.513-9.7 2.201 0 6.41 3.88 8.394 7.74.634 1.231 2.554 2.964 4.268 3.851 1.839.95 2.668 1.888 2.023 2.286-1.361.842-.21 2.849 1.802 3.142 4.598.669 16-.141 16-1.138 0-.615-2.513-4.705-5.585-9.089l-5.585-7.971 3.168-2.624c10.441-8.65 11.446-26.49 1.965-34.862-1.766-1.559-3.629-2.714-4.14-2.567-.512.147-1.551-.353-2.309-1.112-2.357-2.356-9.488-2.989-11.648-1.034-1.644 1.487-2.259 1.27-2.036-.717.037-.327-5.647-.552-12.631-.5-9.368.07-12.731.423-12.823 1.345a175.91 175.91 0 0 0-.251 2.809c-.069.857-.593 1.27-1.166.916-.572-.354-.75-1.559-.395-2.677 1.448-4.563-2.137-.939-3.734 3.774l-1.67 4.928-.08-5.231c-.092-6.039-.769-6.44-10.08-5.966l-5.5.279-.298 7.414c-.164 4.078-.781 7.997-1.372 8.709-1.356 1.633-5.237 1.762-4.235.14.452-.73.274-.882-.484-.413-1.691 1.045-3.477-.71-8.662-8.508-5.104-7.678-5.224-7.74-15.199-7.782-6.406-.027-7.25.185-7.25 1.825M238.5 128c-.34.55-.141 1 .441 1s1.059-.45 1.059-1-.198-1-.441-1-.719.45-1.059 1m26.969 1.05c-.918 1.486-.188 2.012 1.417 1.021.859-.532.962-1.047.29-1.462-.571-.353-1.339-.154-1.707.441M187 130c0 .55.477 1 1.059 1s.781-.45.441-1-.816-1-1.059-1-.441.45-.441 1m58.5 3c.34.55.816 1 1.059 1s.441-.45.441-1-.477-1-1.059-1-.781.45-.441 1m12.65-.05c.22.66.726 1.166 1.125 1.125 1.196-.124.964-1.495-.325-1.925-.66-.22-1.02.14-.8.8M232 134c0 .55.45 1 1 1s1-.45 1-1-.45-1-1-1-1 .45-1 1m-17 1c0 .55.45 1 1 1s1-.45 1-1-.45-1-1-1-1 .45-1 1m78 2.059c0 .582.45.781 1 .441s1-.816 1-1.059-.45-.441-1-.441-1 .477-1 1.059m-65.968 3.566c-.068 6.648-1.066 9.179-3.383 8.574-2.904-.758-4.398-2.397-4.818-5.287-.346-2.379-.371-2.371-1.883.588-1.888 3.695-.707 10.023 2.156 11.556 1.294.692 1.896.686 1.896-.021 0-.569 1.35-1.035 3-1.035 2.474 0 3 .408 3 2.327 0 2.041-.387 2.27-3.149 1.864l-3.149-.462 1.899 2.543c1.045 1.399 2.049 2.135 2.232 1.635 1.289-3.509 2.173.83 2.209 10.843l.042 11.75 1.742-3.266c1.368-2.564 2.003-3.005 2.958-2.05.955.955 1.216-1.925 1.216-13.402 0-14.006.452-18.237 1.855-17.374.355.219.757-1.134.894-3.005.243-3.311-1.072-4.667-2.087-2.153-.277.688-.54-.036-.583-1.607-.061-2.212-.446-2.716-1.706-2.233-.968.372-2.17-.091-2.968-1.143-1.214-1.599-1.344-1.469-1.373 1.358m15.477-.375c.425 4.055.607 4.278 1.556 1.908.942-2.352.513-4.158-.987-4.158-.443 0-.699 1.012-.569 2.25M256 138.927c0 .509.788 1.135 1.75 1.39.962.255-.328.235-2.868-.044-5.593-.616-5.768-.37-6.11 8.549-.24 6.24-.54 7.207-2.522 8.11-2.271 1.035-3.099 3.068-1.25 3.068.55 0 1-.36 1-.799 0-1.577 6.626-3.11 13.369-3.093 5.659.014 7.271-.36 9.149-2.124 4.186-3.933 3.723-10.647-.878-12.736-6.167-2.799-11.64-3.891-11.64-2.321m-64.482 3.165c.312 1.621.025 1.947-1.277 1.447-.924-.355-1.364-.328-.977.059.387.386-.437 1.76-1.832 3.052-1.394 1.293-2.088 2.35-1.543 2.35.546 0 1.271-.45 1.611-1 .923-1.494 2.167-1.207 2.167.5 0 1.319-1.607 1.983-3.917 1.618-.412-.065-.75.359-.75.941s-.45.781-1 .441-1-.111-1 .508c0 .694.817.868 2.125.452 1.337-.424 1.892-.296 1.495.345-.346.561.035.922.846.803 2.03-.298 3.197-1.604 1.451-1.623-1.167-.013-1.152-.187.083-.985 2.049-1.324 3.27-1.246 2.405.155-.443.715-.275.883.44.44.703-.434 1.155-.037 1.155 1.013 0 .949.299 1.426.665 1.061.935-.936 1.024-10.669.097-10.669-.419 0-.762-.675-.762-1.5s-.424-1.5-.943-1.5c-.518 0-.761.941-.539 2.092m4.149 1.575c-1.023 1.022-.792 4.333.302 4.333.532 0 .673-.787.312-1.75-.582-1.555-.461-1.591 1.095-.325 1.562 1.271 1.582 1.519.187 2.3-2.204 1.233-2.026 3.083.187 1.945.963-.495 2.313-.698 3-.452 1.493.536 1.688-1.329.234-2.228-.559-.346-.758-1.047-.441-1.559.316-.512-.127-.931-.984-.931s-1.559-.45-1.559-1c0-1.138-1.338-1.329-2.333-.333m72.971 3.833c.317.825.753 1.5.969 1.5.216 0 .393-.675.393-1.5s-.436-1.5-.969-1.5c-.532 0-.709.675-.393 1.5m-31.638.018c0 .809 2.866 1.183 3.947.514.81-.5.327-.782-1.34-.782-1.434 0-2.607.121-2.607.268m38 1.541c0 .582.45.781 1 .441s1-.816 1-1.059-.45-.441-1-.441-1 .477-1 1.059m-66.561 2.258c-1.171 3.021 1.034 4.165 3.942 2.046 2.594-1.89 3.35-3.363 1.726-3.363-.491 0-1.179.744-1.528 1.653-.571 1.49-.773 1.466-2.035-.25-1.341-1.822-1.431-1.826-2.105-.086M199 153.881c0 .654-2.006 2.05-4.457 3.101-6.987 2.995-7.883 11.625-1.559 15.009 2.629 1.408 15.834 1.591 17.186.239.591-.591 1.806-.847 2.702-.57 1.397.432 1.381.3-.11-.93-1.781-1.469-2.238-13.729-.512-13.73.412 0 .75-.459.75-1.019 0-.622-1.072-.735-2.75-.29-4.162 1.102-7.158.702-9.308-1.244-1.185-1.072-1.942-1.293-1.942-.566M239 156c0 .55.477 1 1.059 1s.781-.45.441-1-.816-1-1.059-1-.441.45-.441 1m-39.551 1.272c-.339.884-.182 2.382.348 3.33.869 1.552 1.037 1.498 1.683-.54.855-2.694-1.059-5.324-2.031-2.79M150 158.941c0 1.132.45 2.059 1 2.059s1-.648 1-1.441-.45-1.719-1-2.059c-.55-.34-1 .309-1 1.441M275 159c0 2.372-1.557 2.586-3.643.5-.825-.825-2.03-1.464-2.678-1.421-.83.055-.808.228.071.583.688.278 1.25 1.436 1.25 2.574 0 2.014-.054 2.008-2-.236-1.1-1.268-2-1.787-2-1.153 0 .634-.498 1.153-1.107 1.153s-.85-.668-.537-1.485c.477-1.243.249-1.285-1.393-.26-1.08.674-1.97 2.13-1.978 3.236-.012 1.508-.23 1.671-.875.652-.555-.875-1.088-.988-1.501-.319-.353.571-.154 1.339.443 1.708.596.369.834 1.323.528 2.121-.307.798-.143 1.195.362.883.506-.313 1.202-.111 1.548.448 1.153 1.865 3.509 1.055 3.589-1.234.043-1.238.307-1.685.585-.994.279.691.918 1.002 1.421.691.503-.311.915-.062.915.553s.52.797 1.155.405c.689-.426.884-.276.483.371-.369.597-.264 1.337.232 1.644.496.306 1.137-.337 1.423-1.431.286-1.094.085-1.989-.446-1.989s-.713-.408-.405-.906c.308-.498 1.46-.671 2.559-.383 1.162.303 1.999.03 1.999-.653 0-.647-.45-.898-1-.558-.55.34-1 .172-1-.374 0-.545.804-1.246 1.786-1.558 1.721-.546 2.602-4.568 1-4.568-.432 0-.786.9-.786 2m-91 .972c0 1.356 1.777 2.198 2.425 1.149.31-.501-.109-1.169-.931-1.485-.822-.315-1.494-.164-1.494.336m62.029.989c-.809.512-1.085 1.292-.613 1.735.472.442 1.06.239 1.306-.452.247-.691.93-.959 1.518-.596.632.391.777.189.355-.493-.847-1.371-.72-1.362-2.566-.194m-90.556 2.44c-1.338 2.043-1.402 2.862-.371 4.782l1.243 2.317 1.283-3c2.349-5.496.751-8.535-2.155-4.099m65.26.723c.679.684 1.486.991 1.793.683.308-.308-.247-.867-1.233-1.243-1.425-.542-1.54-.428-.56.56m45.267-.731c0 .216.698.661 1.552.989.89.341 1.291.173.941-.393-.587-.951-2.493-1.406-2.493-.596m-37 1.666c0 .582.45.781 1 .441s1-.816 1-1.059-.45-.441-1-.441-1 .477-1 1.059m14 .5c0 .857.45 1.281 1 .941.55-.34 1-1.041 1-1.559s-.45-.941-1-.941-1 .702-1 1.559m-24.364.947c-.315.822-.164 1.494.336 1.494 1.356 0 2.198-1.777 1.149-2.425-.501-.31-1.169.109-1.485.931M248 166c0 .55.45 1 1 1s1-.45 1-1-.45-1-1-1-1 .45-1 1m14.211.399c.709.77 1.447 1.25 1.639 1.067.593-.564-.91-2.466-1.948-2.466-.54 0-.401.63.309 1.399M235 167c0 .55.45 1 1 1s1-.45 1-1-.45-1-1-1-1 .45-1 1m18.5 1c-.34.55-.141 1 .441 1s1.059-.45 1.059-1-.198-1-.441-1-.719.45-1.059 1m-71.5.409c0 .19.675.906 1.5 1.591.865.718 1.5.815 1.5.229 0-.558-.675-1.274-1.5-1.591-.825-.316-1.5-.419-1.5-.229m84 .317c0 .49.688 1.765 1.529 2.833 1.481 1.88 1.521 1.864 1.25-.481-.257-2.234-2.779-4.369-2.779-2.352m-50.061.274-.46 2.475c-.374 2.006 1.002 3.482 3.271 3.51.688.008 1.25-.435 1.25-.985s-1.012-1.007-2.25-1.015c-1.415-.01-1.806-.298-1.053-.777.79-.502.88-1.263.266-2.234-.513-.811-.974-1.249-1.024-.974m23.561 1c-.399.646-.276 1.624.274 2.174.667.667 1.242.609 1.726-.174.399-.646.276-1.624-.274-2.174-.667-.667-1.242-.609-1.726.174m-54.5 3.059c0 .582.45.781 1 .441s1-.816 1-1.059-.45-.441-1-.441-1 .477-1 1.059m-37.49 1.957c.346.559 1.047.758 1.559.441 1.387-.857 1.129-1.457-.628-1.457-.857 0-1.276.457-.931 1.016m46.678 1.047c.24.721 1.028 1.509 1.75 1.75.75.25 1.125-.125.875-.875-.241-.722-1.029-1.51-1.75-1.75-.75-.25-1.125.125-.875.875m15.041.125c.618 1.854 2.771 2.161 2.771.395 0-.87-.713-1.583-1.583-1.583-.871 0-1.406.534-1.188 1.188m7.504.936c.679.684 1.486.991 1.793.683.308-.308-.247-.867-1.233-1.243-1.425-.542-1.54-.428-.56.56m20.955.522c-1.305 1.304-.682 2.354 1.395 2.354 1.164 0 1.909-.524 1.688-1.187-.487-1.462-2.157-2.094-3.083-1.167m-14.527 2.901c-1.425 3.126-1.472 4.453-.161 4.453.55 0 1-.873 1-1.941s.45-2.219 1-2.559c1.214-.75 1.326-2.5.161-2.5-.462 0-1.362 1.146-2 2.547m-21.161.512c0 1.132.45 1.781 1 1.441.55-.34 1-1.266 1-2.059 0-.793-.45-1.441-1-1.441s-1 .927-1 2.059m56.5-.059c-.34.55-.141 1 .441 1s1.059-.45 1.059-1-.198-1-.441-1-.719.45-1.059 1m43 1c.34.55.816 1 1.059 1s.441-.45.441-1-.477-1-1.059-1-.781.45-.441 1m-93.947.915a1.116 1.116 0 0 0 .362 1.532c.521.322 1.21.159 1.532-.362a1.116 1.116 0 0 0-.362-1.532 1.116 1.116 0 0 0-1.532.362M264 183c0 .55.477 1 1.059 1s.781-.45.441-1-.816-1-1.059-1-.441.45-.441 1m-106 3c0 .55.477 1 1.059 1s.781-.45.441-1-.816-1-1.059-1-.441.45-.441 1m55.105 3.804c-1.121 2.094.149 4.775 1.783 3.765 1.363-.842 1.487-5.569.147-5.569-.53 0-1.399.812-1.93 1.804m28.974-.221c.048 1.165.285 1.402.604.605.289-.722.253-1.585-.079-1.917-.332-.332-.568.258-.525 1.312M276 192.559c0 .857.45 1.281 1 .941.55-.34 1-1.041 1-1.559s-.45-.941-1-.941-1 .702-1 1.559M162 197c0 .55.45 1 1 1s1-.45 1-1-.45-1-1-1-1 .45-1 1m69.5 0c.34.55.816 1 1.059 1s.441-.45.441-1-.477-1-1.059-1-.781.45-.441 1m13.05.25c-.927 2.99-1.211 6.75-.509 6.75.731 0 2.959-5.382 2.959-7.149 0-1.327-2.017-.999-2.45.399m-35.08 6.808c-.888 1.717-1.347 3.821-1.019 4.675.742 1.934 1.104 1.575 3.008-2.981 1.918-4.59.246-6.015-1.989-1.694m6.53.001c0 .582.45.781 1 .441s1-.816 1-1.059-.45-.441-1-.441-1 .477-1 1.059M161 205c0 .55.477 1 1.059 1s.781-.45.441-1-.816-1-1.059-1-.441.45-.441 1m35.5 4c.34.55.816 1 1.059 1s.441-.45.441-1-.477-1-1.059-1-.781.45-.441 1m54.5.5c0 .825.45 1.5 1 1.5s1-.675 1-1.5-.45-1.5-1-1.5-1 .675-1 1.5m-27.006 4.412c-1.379.432-4.079 1.621-6 2.642-1.922 1.021-3.865 1.754-4.318 1.627-.454-.127-.551.212-.216.754.334.541.041 1.891-.651 2.999-.993 1.591-1.001 2.274-.034 3.241.967.967 1.23.814 1.248-.725.016-1.384.504-.973 1.681 1.416l1.658 3.366 2.569-3.078c4.46-5.343 10.263-5.984 15.067-1.664 1.262 1.134 2.022 1.131 4.752-.021 3.275-1.383 4.095-2.829 2.25-3.969-.55-.34-1-1.068-1-1.618s.45-.722 1-.382c.55.34 1 .093 1-.548 0-.655-.697-.899-1.591-.556-.875.336-2.787-.236-4.25-1.271-3.144-2.224-9.64-3.316-13.165-2.213M150.5 215c.34.55.195 1-.322 1-.539 0-1.006 6.607-1.096 15.5l-.157 15.5h3.98c3.967 0 3.981-.013 4.288-4.25.412-5.704 3.118-5.749 7.264-.12 2.686 3.646 3.587 4.174 7.675 4.5 5.158.412 5.357-1.15.874-6.85l-1.955-2.485 2.855-2.855c3.195-3.194 4.362-8.174 2.799-11.94-1.124-2.708-1.388-3.525-1.58-4.886-.069-.487-1.656-1.612-3.526-2.5-3.89-1.846-22.19-2.378-21.099-.614m32.167-.333c-.367.366-.667 2.827-.667 5.468 0 4.16.234 4.713 1.747 4.132 1.645-.632 1.643-.511-.039 2.056-1.42 2.167-1.754 4.573-1.624 11.702l.164 8.975h6.676c3.967 0 7.214.507 8.001 1.25 1.06 1 1.417 1 1.783 0 .274-.746 2.265-1.25 4.936-1.25h4.477l-.311-3.75-.31-3.75-8.359-.292c-7.055-.247-8.584-.013-9.805 1.5-1.333 1.651-1.364 1.621-.391-.392 1.451-3.004 1.328-3.997-.586-4.732-1.383-.53-1.439-.386-.359.916 1.066 1.284 1.033 1.45-.196.978-1.614-.619-1.888-6.784-.363-8.175.5-.457.528-.198.065.602-.548.944-.437 1.17.339.69 1.774-1.096 1.37-2.719-.595-2.389-1.019.171-1.75-.332-1.75-1.206 0-1.569.727-1.643 3.924-.4 1.531.595 1.792.406 1.281-.926-.421-1.097-.136-1.674.826-1.674.808 0 1.469-.477 1.469-1.059s-.45-.781-1-.441-1 .254-1.001-.191c-.001-.445 3.709-.809 8.243-.809 8.84 0 9.458-.438 7.399-5.25-1.2-2.806-11.641-3.478-11.641-.75 0 .825-.45 1.5-1 1.5s-1-.675-1-1.5c0-1.555-8.894-2.272-10.333-.833m75.461.678c-.659.795-1.09 1.829-.957 2.3.132.47-.539 2.318-1.491 4.105-1.068 2.006-1.307 3.25-.622 3.25.61 0 .902.563.65 1.25-.252.688-.908 1.156-1.459 1.041-.55-.114-2.789 4.273-4.976 9.75-2.187 5.478-3.788 9.959-3.559 9.959.23 0 1.288-.466 2.352-1.035 1.333-.714 1.934-.714 1.934 0 0 1.837 3.896 1.098 4.99-.947.584-1.09.888-3.552.676-5.472-.211-1.919-.036-3.275.39-3.012.425.263 1.008-.087 1.296-.778.373-.897.966-.706 2.075.671.854 1.06 1.308 2.172 1.008 2.471-.299.299-.897-.027-1.328-.724-.613-.993-1.063-.932-2.068.279-.87 1.048-.922 1.547-.161 1.547.617 0 1.122.675 1.122 1.5 0 .933.944 1.5 2.5 1.5s2.5-.567 2.5-1.5c0-.825.45-1.5 1-1.5s1 .724 1 1.609c0 1.251.781 1.519 3.5 1.201 3.382-.395 4.807.544 2.25 1.482-1.524.558.022 2.443 2.25 2.743 5.139.692 7.139-.021 6.41-2.285-.398-1.238-.729-2.812-.734-3.5-.005-.687-.294-1.25-.642-1.25-.348 0-1.227-1.646-1.955-3.658-1.13-3.124-1.465-3.404-2.296-1.918-.536.956-.755 2.573-.489 3.593.284 1.084-.142 2.094-1.024 2.433-1.16.445-1.399.005-1.034-1.905.261-1.367.09-2.247-.38-1.956-.471.291-.856 1.23-.856 2.087 0 1.127-.622 1.391-2.25.954-1.238-.331-2.902-.609-3.7-.616-1.128-.011-1.183-.281-.25-1.214 1.313-1.313 1.653-3.185.45-2.476-.413.242-1.72.074-2.905-.374-2.028-.767-2.078-1.042-.843-4.633.722-2.099 1.574-3.692 1.895-3.54.32.153 1.259.538 2.087.855.827.318 1.21 1.093.85 1.723-.36.63-.298.823.137.43 1.073-.968 4.549.985 4.45 2.5-.059.916-.203.907-.583-.035-.586-1.453-2.338-1.69-2.338-.317 0 1.664 4.149 2.347 5.578.918 1.14-1.141.82-2.704-2.015-9.853l-3.369-8.498-3.934-.3c-2.519-.191-4.364.22-5.132 1.145M283 230.5V247h4.575c4.562 0 4.575-.009 4.25-3.25l-.325-3.25 5.848-.628c11.482-1.234 16.708-9.629 12.075-19.394-2.325-4.898-6.549-6.478-17.324-6.478H283v16.5m-119-14.441c0 .582.45.781 1 .441s1-.816 1-1.059-.45-.441-1-.441-1 .477-1 1.059m61.009 1.43c-.68.819-1.604 1.262-2.053.984-.45-.278-1.143.021-1.541.665-.452.731-.291.903.43.457.635-.392 1.155-.181 1.155.468 0 .832.37.875 1.25.144.688-.57 1.7-1.051 2.25-1.069 1.28-.041 1.966-3.138.696-3.138-.523 0-1.507.67-2.187 1.489M171 218c0 .55.45 1 1 1s1-.45 1-1-.45-1-1-1-1 .45-1 1m119 1c0 .55.477 1 1.059 1s.781-.45.441-1-.816-1-1.059-1-.441.45-.441 1m9 1.828c0 .793-.866.993-2.513.579-4.315-1.083-5.997 2.495-4.627 9.843.229 1.225 7.638.852 8.94-.45 1.643-1.643 1.455-6.879-.332-9.241-.807-1.068-1.468-1.397-1.468-.731m-139.157.905c-2.384.343-2.693.865-3 5.074l-.343 4.693 4.25-.351c3.287-.271 4.25-.007 4.25 1.167 0 .835.563 1.762 1.25 2.061.688.299-.036.276-1.608-.052-2.666-.556-2.781-.453-1.714 1.54.628 1.174 1.802 2.135 2.607 2.135.806 0 1.803.113 2.215.25.412.137.818-1.437.9-3.5.083-2.062-.31-3.75-.872-3.75-.692 0-.695-.405-.011-1.25 1.104-1.363 1.366-6.576.358-7.13-1.41-.775-5.794-1.244-8.282-.887m57.3 2.157c-.834.529-.971 1.098-.355 1.479.552.341 1.26-.053 1.576-.875.662-1.727.6-1.757-1.221-.604m42.357.11c-.34.55-.254 1.007.191 1.015.445.009.134.493-.691 1.076-1.173.83-1.192.978-.087.681.777-.209 1.524-1.144 1.661-2.076.28-1.908-.152-2.188-1.074-.696m-33 2c.34.55.816 1 1.059 1s.441-.45.441-1-.477-1-1.059-1-.781.45-.441 1m-32.958 1.932c-.316.512.342 1.574 1.464 2.359 1.326.929 1.81 2.025 1.385 3.133-.565 1.471-.056 1.661 3.727 1.39 4.875-.349 5.388-1.441 2.492-5.297-1.933-2.574-7.821-3.603-9.068-1.585m17.125-.265c-1.282 1.281-.654 4.333.892 4.333.924 0 1.268-.47.846-1.155-.443-.715-.275-.883.44-.44 1.308.807 1.417.442.548-1.823-.644-1.679-1.631-2.01-2.726-.915m7.146 2.663c-.732.732-1.889 1.145-2.572.917-1.14-.38-1.711.974-1.319 3.126.088.48-.534.606-1.381.281-1.886-.724-1.898-.445-.162 3.71 1.67 3.998 6.168 7.747 8.309 6.926.905-.348 1.948.096 2.485 1.056 2.56 4.573 19.827-1.473 19.827-6.943 0-2.784-6.949-3.799-9.515-1.389-1.773 1.666-3.242 2.116-5.895 1.807-2.363-.276-3.705.038-4.054.947-.287.747-1.006 1.06-1.597.694-.591-.365-.825-1.317-.518-2.116.306-.798-.166-2.553-1.048-3.9-.883-1.347-1.37-3.349-1.083-4.448.614-2.346.329-2.474-1.477-.668M253 231.563c0 1.164 2.887 3.429 3.372 2.645.274-.444-.372-1.352-1.437-2.016-1.064-.665-1.935-.948-1.935-.629m33.333.8c0 .851.721 1.174 1.918.861 1.48-.387 1.613-.695.584-1.347-1.889-1.197-2.502-1.078-2.502.486M169.5 233c-.34.55-.168 1 .382 1s1.278-.45 1.618-1c.34-.55.168-1-.382-1s-1.278.45-1.618 1m21.5.5c-.718.865-.815 1.5-.229 1.5.558 0 1.274-.675 1.591-1.5.316-.825.419-1.5.229-1.5-.19 0-.906.675-1.591 1.5m97 1.831c-2.645 1.237-3.243 3.826-1.326 5.743 1.29 1.29 3.68.308 2.783-1.143-.316-.512-.104-.931.473-.931.576 0 .954-1.125.841-2.5-.114-1.375-.222-2.463-.239-2.419-.018.045-1.157.607-2.532 1.25m-.376 2.208c-.965 2.514-.681 3.163.498 1.136.584-1.004.851-2.036.593-2.293-.257-.258-.749.263-1.091 1.157m-51.624.878c0 .87.713 1.583 1.583 1.583.871 0 1.406-.534 1.188-1.187-.618-1.855-2.771-2.162-2.771-.396m-58.5.583c-.34.55-.141 1 .441 1s1.059-.45 1.059-1-.198-1-.441-1-.719.45-1.059 1m-7.861 1.694c-1.126 1.126-.685 2.306.861 2.306.825 0 1.5-.423 1.5-.941 0-1.261-1.562-2.164-2.361-1.365M184.5 242c-.34.55-.141 1 .441 1s1.059-.45 1.059-1-.198-1-.441-1-.719.45-1.059 1m6.5.393c0 .216.675.652 1.5.969.825.316 1.5.139 1.5-.393 0-.533-.675-.969-1.5-.969s-1.5.177-1.5.393M188.5 252c-.34.55-.141 1 .441 1s1.059-.45 1.059-1-.198-1-.441-1-.719.45-1.059 1m15.688.063c.24.721 1.028 1.509 1.75 1.75.75.25 1.125-.125.875-.875-.241-.722-1.029-1.51-1.75-1.75-.75-.25-1.125.125-.875.875M181 256.059c0 .582.45.781 1 .441s1-.816 1-1.059-.45-.441-1-.441-1 .477-1 1.059m85 2c0 .582.45.781 1 .441s1-.816 1-1.059-.45-.441-1-.441-1 .477-1 1.059m-94.5.941c-.34.55-.141 1 .441 1s1.059-.45 1.059-1-.198-1-.441-1-.719.45-1.059 1m37.056 1.274c-1.713 2.615-1.821 7.738-.164 7.847 2.254.148 4.502-5.555 3.166-8.032l-1.301-2.411-1.701 2.596M224 263.441c0 .857.45 1.559 1 1.559s1-.423 1-.941-.45-1.219-1-1.559c-.55-.34-1 .084-1 .941m21.5-.441c-.357.577.57.994 2.191.985 2.181-.012 2.474-.232 1.309-.985-1.921-1.242-2.733-1.242-3.5 0m-11.5 5.819c0 1.208 1.897 2.617 2.591 1.924.251-.252-.229-1.027-1.067-1.723-.95-.789-1.524-.865-1.524-.201m8.649 1.653c-.919 2.396-.804 4.528.244 4.528 1.396 0 2.202-3.008 1.258-4.695-.747-1.334-.934-1.313-1.502.167M184 273c0 .55.45 1 1 1s1-.45 1-1-.45-1-1-1-1 .45-1 1" fill-rule="evenodd"/><path fill="#624578" stroke="#624578" d="M216 43.104c-19.582 13.119-25.821 15.084-39.5 12.442-19.439-3.755-25.874-.269-32.997 17.874-5.918 15.075-11.539 20.77-25.846 26.185-17.94 6.791-21.929 13.53-18.96 32.026 2.602 16.209 1.683 19.049-13.447 41.564-8.607 12.807-8.554 14.43.83 25.805 13.059 15.829 14.798 22.153 12.446 45.26-1.387 13.619 3.841 21.4 17.363 25.841 15.887 5.218 22.652 12.152 27.673 28.365 3.17 10.235 12.046 17.495 21.438 17.533 1.375.006 6.214-.759 10.753-1.7 13.132-2.722 22.511.222 38.112 11.963 13.472 10.138 18.592 9.839 32.669-1.911 12.989-10.841 21.597-13.25 35.325-9.885 8.359 2.048 13.494 1.478 20.465-2.27 5.938-3.194 7.6-5.47 11.64-15.947 5.205-13.495 15.318-22.41 30.979-27.307 8.897-2.782 16.397-14.43 14.623-22.709-4.116-19.203-1.944-30.566 8.082-42.285 12.13-14.178 12.406-24.92.949-36.931-10.26-10.757-11.011-14.197-9.525-43.611.68-13.467-4.678-19.509-22.777-25.681-10.866-3.706-18.329-11.973-23.343-25.858-5.174-14.328-11.41-18.765-24.343-17.323-23.216 2.589-31.824.653-43.128-9.699-12.655-11.59-14.607-11.705-29.481-1.741m60 45.955c0 .582.45.781 1 .441s1-.816 1-1.059-.45-.441-1-.441-1 .477-1 1.059M175.5 94c-.34.55-.141 1 .441 1S177 94.55 177 94s-.198-1-.441-1-.719.45-1.059 1m44.065 1.895c-.666 1.077 1.436 1.984 3.185 1.374.688-.239 1.25-.848 1.25-1.352 0-1.181-3.708-1.199-4.435-.022M213.5 107c-.34.55-.141 1 .441 1s1.059-.45 1.059-1-.198-1-.441-1-.719.45-1.059 1m50.5 5.5c0 .917.484 1.505 1.075 1.308.591-.197 1.075-.785 1.075-1.308s-.484-1.111-1.075-1.308c-.591-.197-1.075.391-1.075 1.308m-51 2.5c0 .55.45 1 1 1s1-.45 1-1-.45-1-1-1-1 .45-1 1m30-.118c0 .55.45 1.278 1 1.618.55.34 1 .168 1-.382s-.45-1.278-1-1.618c-.55-.34-1-.168-1 .382m3.426 5.868-.926 3.75-6.481.304c-7.272.341-9.385 1.639-10.57 6.497l-.78 3.199-.584-4.5-.585-4.5h-15l-.288 7.533c-.244 6.386-.607 7.733-2.384 8.842-1.588.992-2.273 1.024-2.824.132-.4-.648-1.015-1.139-1.366-1.092-1.764.236-2.325-.209-4.638-3.672-1.375-2.059-3.288-4.616-4.251-5.683-1.347-1.492-1.462-2.124-.5-2.735.914-.581.813-.798-.377-.81-.895-.008-2.201-.707-2.902-1.552-1.483-1.786-18.053-1.735-18.646.057-.185.561 1.109 2.586 2.877 4.5 1.768 1.914 3.305 4.031 3.415 4.705.11.673 1.327 2.665 2.704 4.424l2.504 3.2-4.412 4.288c-2.655 2.581-4.418 5.199-4.427 6.576-.013 1.843-.204 1.996-.985.787-.533-.825-1.021-1.162-1.085-.75-.402 2.617-.208 5.467.444 6.522.418.675.283 1.228-.3 1.228-1.511 0-1.308 4.798.454 10.731 1.408 4.743 7.289 12.269 9.587 12.269.495 0 .9.675.9 1.5s.675 1.5 1.5 1.5 1.5-.477 1.5-1.059c0-.595.547-.719 1.25-.282.688.428 5.525.851 10.75.941 15.051.257 14.204.1 12.784 2.375-1.874 2.999.729 5.368 2.805 2.554.8-1.085 1.25-2.506 1-3.158-.865-2.254 9.675-2.264 11.319-.011 1.38 1.891 1.435 1.891 2.794.034 1.527-2.087 11.497-2.879 11.037-.876-.131.572.211 1.028.761 1.012.55-.017.884-.378.742-.803-.142-.426 1.096-1.045 2.75-1.375l3.008-.602v-7.34c0-8.545 1.705-10.626 6.725-8.205 3.28 1.581 8.196 8.468 8.242 11.545.018 1.238.531 2.25 1.14 2.25.609 0 .834-.713.499-1.584-.387-1.009-.154-1.425.643-1.146.688.241 1.124 1.155.969 2.032-.155.876.52 2.015 1.5 2.529 2.278 1.196 17.073 1.317 17.796.146.301-.487-1.657-3.973-4.351-7.748-7.034-9.858-7.496-10.867-5.395-11.788.953-.417 2.182-.65 2.732-.516.55.133.69-.069.31-.448-.379-.379.161-1.603 1.2-2.718 7.812-8.385 7.667-23.824-.299-31.999-2.283-2.343-4.22-4.598-4.306-5.01a68.63 68.63 0 0 1-.28-1.45c-.069-.385-.586-.239-1.15.325-.694.694-2.799.704-6.516.03-4.918-.891-5.641-.795-6.943.925-1.332 1.761-1.455 1.774-1.484.155-.027-1.496-.864-1.731-5.486-1.538-6.306.264-7.142-.216-5.55-3.189 1.185-2.214.745-5.008-.788-5.008-.471 0-1.272 1.688-1.782 3.75M192 119.059c0 .582.45.781 1 .441s1-.816 1-1.059-.45-.441-1-.441-1 .477-1 1.059m-24 .882c0 .518.45 1.219 1 1.559.55.34 1-.084 1-.941s-.45-1.559-1-1.559-1 .423-1 .941M282 122c0 1.949 1.061 2.606 2.264 1.402.802-.801-.247-3.402-1.371-3.402-.491 0-.893.9-.893 2m-85.365-.219c-.277.448-.145 1.393.292 2.101.621 1.004.925.946 1.39-.266.629-1.64-.823-3.224-1.682-1.835M222 122c0 .55.423 1 .941 1s1.219-.45 1.559-1c.34-.55-.084-1-.941-1s-1.559.45-1.559 1m43.5 7c-.34.55-.141 1 .441 1s1.059-.45 1.059-1-.198-1-.441-1-.719.45-1.059 1m-7.5 3.972c0 1.356 1.777 2.198 2.425 1.149.31-.501-.109-1.169-.931-1.485-.822-.315-1.494-.164-1.494.336M215 135c0 .55.45 1 1 1s1-.45 1-1-.45-1-1-1-1 .45-1 1m77.553.915a1.116 1.116 0 0 0 .362 1.532c.521.322 1.21.159 1.532-.362a1.116 1.116 0 0 0-.362-1.532 1.116 1.116 0 0 0-1.532.362M170 138.059c0 .582.45.781 1 .441s1-.816 1-1.059-.45-.441-1-.441-1 .477-1 1.059m86.472.842c-.535.52-2.322 1.092-3.972 1.272l-3 .327-.5 8.073-.5 8.072 8-.455c4.4-.25 9.025-.838 10.277-1.308 3.026-1.134 4.471-4.98 2.432-6.471-1.642-1.201-.734-3.854.96-2.807.649.402.622-.126-.075-1.428-1.35-2.523-2.429-3.223-6.462-4.193-1.723-.414-3.82-1.039-4.66-1.39-.841-.35-1.966-.212-2.5.308M226.955 142c-.135 4.367-.618 6.997-1.437 7.815-1.169 1.169-5.929-2.322-6.586-4.83l-.651-2.485-1.163 2.873c-.649 1.606-.875 4.403-.512 6.338.647 3.451.668 3.463 5.522 3.127 4.727-.328 4.873-.256 4.873 2.4-.001 2.032-.453 2.677-1.751 2.5-.963-.131-1.75.212-1.75.762s.787.964 1.75.921c1.568-.072 1.754 1.123 1.792 11.5.042 11.555.045 11.572 1.766 8.347 1.554-2.912 1.841-3.061 2.9-1.5.926 1.366 1.19-1.33 1.248-12.768.049-9.624.542-15.844 1.465-18.497 1.404-4.035 1.059-6.869-.531-4.36-.596.941-.864.476-.875-1.515-.013-2.466-.232-2.693-1.546-1.602-1.266 1.051-1.78.942-2.968-.628-1.341-1.77-1.445-1.662-1.546 1.602M256 141c0 .55.423 1 .941 1s1.219-.45 1.559-1c.34-.55-.084-1-.941-1s-1.559.45-1.559 1m-66.992 4.75c.011 1.079 5.111 3.294 6.132 2.663.473-.292.828-1.292.79-2.222-.06-1.445-.177-1.419-.806.182-.629 1.598-.951 1.671-2.204.5-1.692-1.582-3.924-2.223-3.912-1.123m9.135 2.14c-.946.6-1.021 1.067-.25 1.544.609.376 1.107.181 1.107-.434s.52-.797 1.155-.405c.715.443.883.275.44-.44-.842-1.364-.735-1.352-2.452-.265m33.936.693c.048 1.165.285 1.402.604.605.289-.722.253-1.585-.079-1.917-.332-.332-.568.258-.525 1.312m-42.079.011c0 1.347 3.901 4.108 4.307 3.048.254-.662-.611-1.71-1.923-2.329-1.311-.618-2.384-.942-2.384-.719M137.5 151c-.34.55-.141 1 .441 1s1.059-.45 1.059-1-.198-1-.441-1-.719.45-1.059 1m71.179.711c-.301.486-.183 1.474.262 2.194.615.994.986 1.022 1.547.115.406-.657.288-1.644-.262-2.194-.56-.56-1.241-.61-1.547-.115M158 153.441c0 .857.45 1.559 1 1.559s1-.423 1-.941-.45-1.219-1-1.559c-.55-.34-1 .084-1 .941m41 .884c0 1.121-1.062 1.937-3.031 2.331-6.182 1.237-8.992 9.749-4.651 14.091 1.478 1.477 12.929 3.462 12.084 2.094-.276-.446.784-.554 2.354-.24 4.031.806 4.969-.888 5.401-9.76.339-6.959.217-7.577-1.326-6.75-.935.5-3.03.909-4.657.909-2.392 0-3.089.526-3.647 2.749l-.69 2.749-1.368-2.499c-1.194-2.18-1.158-2.659.278-3.753 1.277-.973 1.378-1.521.449-2.45-.928-.928-1.196-.81-1.196.529m-49.292 3.3c-.78.78.295 3.375 1.399 3.375 1.143 0 1.168-2.712.032-3.414-.473-.292-1.117-.275-1.431.039M164 159.059c0 .582.45.781 1 .441s1-.816 1-1.059-.45-.441-1-.441-1 .477-1 1.059m43 0c0 .582.45.781 1 .441s1-.816 1-1.059-.45-.441-1-.441-1 .477-1 1.059m-51.368 3.614c-1.53 2.06-1.664 2.96-.745 4.977 1.427 3.133 2.851 2.263 3.7-2.26.861-4.591-.58-5.916-2.955-2.717M184.5 161c.34.55.816 1 1.059 1s.441-.45.441-1-.477-1-1.059-1-.781.45-.441 1m77.5.544c0 .746-.647 1.719-1.439 2.162-1.22.683-1.165 1.168.363 3.193 1.913 2.537 4.155 2.136 3.96-.708-.105-1.525-.161-1.519-.573.059-.565 2.161-1.899 2.267-2.687.212-.335-.873.048-1.783.887-2.105.813-.311 1.276-.893 1.03-1.291-.247-.399.543-.614 1.755-.479 3.277.366 3.302.381 1.994 1.212-.884.562-.615 1.445 1 3.282 1.216 1.383 1.817 1.93 1.338 1.216-.575-.855-.405-1.308.5-1.329.918-.021.73-.517-.569-1.5-1.344-1.016-1.506-1.468-.528-1.468 1.896 0-1.785-2.503-4.781-3.251-1.504-.375-2.25-.112-2.25.795m9.459.523c-.363.586-.445 1.281-.183 1.543s.743-.218 1.069-1.067c.676-1.762.1-2.072-.886-.476M148 165.5c0 .825.45 1.5 1 1.5s1-.675 1-1.5-.45-1.5-1-1.5-1 .675-1 1.5m81-.441c0 .582.45.781 1 .441s1-.816 1-1.059-.45-.441-1-.441-1 .477-1 1.059m6 1.941c0 .55.477 1 1.059 1s.781-.45.441-1-.816-1-1.059-1-.441.45-.441 1m47.5 3c.34.55.816 1 1.059 1s.441-.45.441-1-.477-1-1.059-1-.781.45-.441 1m-70.5 1c0 .55.477 1 1.059 1s.781-.45.441-1-.816-1-1.059-1-.441.45-.441 1m27.5 0c-.34.55-.168 1 .382 1s1.278-.45 1.618-1c.34-.55.168-1-.382-1s-1.278.45-1.618 1m-91.984 2.975c-.808 1.307 1.493 2.416 2.638 1.271.64-.64.448-1.185-.555-1.57-.844-.324-1.782-.189-2.083.299M289.5 174c-.34.55-.141 1 .441 1s1.059-.45 1.059-1-.198-1-.441-1-.719.45-1.059 1M167 176.559c0 .857.457 1.276 1.016.931.559-.346.758-1.047.441-1.559-.857-1.387-1.457-1.129-1.457.628m27.188-.496c.24.721 1.028 1.509 1.75 1.75.75.25 1.125-.125.875-.875-.241-.722-1.029-1.51-1.75-1.75-.75-.25-1.125.125-.875.875M209 176c0 .55.675 1 1.5 1s1.5-.45 1.5-1-.675-1-1.5-1-1.5.45-1.5 1m28.597 1.844c-.346.56-.142 1.319.453 1.687 1.538.95 2.53-.351 1.246-1.635-.718-.718-1.277-.735-1.699-.052m-13.995 2.314c-.881 1.258-1.6 2.974-1.598 3.815.002.84.926.014 2.054-1.836 2.34-3.838 1.97-5.443-.456-1.979M159 180.059c0 .582.45.781 1 .441s1-.816 1-1.059-.45-.441-1-.441-1 .477-1 1.059m43 .441c0 .825.45 1.5 1 1.5s1-.675 1-1.5-.45-1.5-1-1.5-1 .675-1 1.5m56 .5c0 .55.45 1 1 1s1-.45 1-1-.45-1-1-1-1 .45-1 1m43 1c0 .55.45 1 1 1s1-.45 1-1-.45-1-1-1-1 .45-1 1m-143.403 3.844c-.346.56-.142 1.319.453 1.687 1.538.95 2.53-.351 1.246-1.635-.718-.718-1.277-.735-1.699-.052M178.5 190c-.34.55-.141 1 .441 1s1.059-.45 1.059-1-.198-1-.441-1-.719.45-1.059 1m97.515 3.25c.013 1.819.201 1.963.985.75 1.253-1.939 1.253-3 0-3-.55 0-.993 1.012-.985 2.25M198 196.059c0 .582.45.781 1 .441s1-.816 1-1.059-.45-.441-1-.441-1 .477-1 1.059m70 0c0 .582.45.781 1 .441s1-.816 1-1.059-.45-.441-1-.441-1 .477-1 1.059M161.5 197c.34.55 1.041 1 1.559 1s.941-.45.941-1-.702-1-1.559-1-1.281.45-.941 1m69.5 0c0 .55.45 1 1 1s1-.45 1-1-.45-1-1-1-1 .45-1 1m13 .375c0 .756-.281 2.781-.625 4.5-.83 4.148.904 4.007 2.424-.196 1.583-4.378 1.515-5.679-.299-5.679-.825 0-1.5.619-1.5 1.375m30.5.625c-.34.55-.141 1 .441 1s1.059-.45 1.059-1-.198-1-.441-1-.719.45-1.059 1m-50.5 3.559c0 .857.457 1.276 1.016.931.559-.346.758-1.047.441-1.559-.857-1.387-1.457-1.129-1.457.628m-27.5.441c.34.55.816 1 1.059 1s.441-.45.441-1-.477-1-1.059-1-.781.45-.441 1m12.794 2.51c-1.237 2.594-1.381 3.803-.552 4.632 1.034 1.034 4.258-4.466 4.258-7.264 0-2.123-2.175-.578-3.706 2.632m6.706-1.069c0 .857.45 1.559 1 1.559s1-.423 1-.941-.45-1.219-1-1.559c-.55-.34-1 .084-1 .941M145 204c0 .55.45 1 1 1s1-.45 1-1-.45-1-1-1-1 .45-1 1m15.5 1c.34.55 1.041 1 1.559 1s.941-.45.941-1-.702-1-1.559-1-1.281.45-.941 1m35.5 4c0 .55.675 1 1.5 1s1.5-.45 1.5-1-.675-1-1.5-1-1.5.45-1.5 1m54.543-.069c-.74 1.197 1.141 2.382 2.473 1.559 1.119-.691.384-2.49-1.016-2.49-.485 0-1.141.419-1.457.931m29.054-.087c-.346.56-.142 1.319.453 1.687 1.538.95 2.53-.351 1.246-1.635-.718-.718-1.277-.735-1.699-.052M172 211c0 .55.45 1 1 1s1-.45 1-1-.45-1-1-1-1 .45-1 1m43 0c0 .55.477 1 1.059 1s.781-.45.441-1-.816-1-1.059-1-.441.45-.441 1m-13.476 2.807c-3.287.168-6.359.843-6.826 1.5-.653.916-.968.903-1.357-.057-.318-.784-2.528-1.25-5.924-1.25H182v5.5c0 3.725.403 5.505 1.25 5.515.971.012.963.198-.037.832-.946.601-1.211 3.573-1 11.235l.287 10.418 6.972.301c4.007.173 7.304.811 7.75 1.5.594.915.959.921 1.541.023.42-.646 2.557-1.321 4.75-1.5 3.917-.318 3.992-.399 4.294-4.574l.308-4.25h-8.558c-7.766 0-8.557-.177-8.557-1.917 0-2.456 1.232-2.823 7-2.083 6.151.789 7 .408 7-3.142 0-1.743-.417-2.718-1.007-2.354-.554.343-1.277-.081-1.607-.941-.43-1.119-1.972-1.563-5.434-1.563-2.659 0-5.131-.48-5.493-1.067-1.34-2.168 2.985-3.869 9.919-3.901l6.878-.032-.584-4.25c-.333-2.427-.248-3.421.2-2.316.475 1.173 1.043 1.512 1.444.863 1.173-1.896-1.669-2.805-7.792-2.49m18.849 1.052c-2.269 1.063-4.421 2.41-4.782 2.993-.36.583-1.203.929-1.873.768-.67-.161-.889-.106-.487.121.402.227-.204 2.246-1.347 4.486-3.44 6.744-1.924 14.694 3.78 19.823 5.425 4.878 6.46 5.476 5.777 3.341-.569-1.782-.521-1.79.838-.141 3.053 3.706 12.429 2.11 17.971-3.059 3.555-3.316 3.467-4.687-.424-6.628-2.99-1.491-3.3-1.466-5.315.427-1.445 1.357-3.509 2.01-6.357 2.01-2.819 0-4.407.495-4.79 1.494-.316.822-1.007 1.227-1.537.899-.53-.327-.727-1.211-.438-1.964.289-.753-.393-3.445-1.515-5.982-1.123-2.537-1.779-4.876-1.458-5.197.321-.321.584-.058.584.583 0 .642.436 1.167.969 1.167.532 0 .7-.698.373-1.551-1.929-5.028 8.242-8.305 13.705-4.415 3.685 2.623 10.803.478 9.139-2.754-.504-.979-.704-2.373-.445-3.098.263-.735-.129-1.198-.885-1.047-.746.149-2.843-.519-4.66-1.485-5.156-2.742-11.974-3.063-16.823-.791M149.5 215c.34.55.141 1-.441 1S148 217.125 148 218.5s.563 2.507 1.25 2.515c.896.011.929.224.115.75-.758.492-1.089 4.875-1 13.235l.135 12.5 4.25.307 4.25.308v-4.498c0-7.249 3.094-7.248 8.083.003 2.815 4.092 3.313 4.38 7.572 4.38 3.57 0 4.438-.314 4.003-1.449-.397-1.034-.076-1.265 1.121-.806.922.354-.001-1.034-2.051-3.084-4.175-4.175-4.396-4.861-2.162-6.716 6.134-5.091 5.214-17.227-1.566-20.653-3.061-1.546-23.439-1.811-22.5-.292m107.193 1.037c-.994 1.166-1.618 2.647-1.385 3.291.232.645.001 1.988-.513 2.986-.612 1.189-.547 2.28.189 3.166.861 1.039.735 1.43-.543 1.686-1.055.212-3.053 3.816-5.45 9.834-3.754 9.423-4.14 12.199-1.378 9.906.79-.655 1.749-.877 2.132-.494s.035 1.159-.774 1.723c-1.083.756-.681.859 1.529.391 3.329-.705 5.5-2.962 5.5-5.717 0-.995.477-1.809 1.059-1.809s.781.45.441 1c-.386.625 1.663 1 5.462 1 5.451 0 6.194.249 7.176 2.404 2.283 5.009 10.978 3.499 9.249-1.606-.429-1.264-.671-2.86-.539-3.548.132-.687-.175-1.25-.683-1.25-.507 0-1.485-1.357-2.172-3.016-1.154-2.786-1.351-2.881-2.589-1.25-1.627 2.143-1.904.048-.331-2.498.834-1.349.326-3.518-2.28-9.736l-3.354-8-4.469-.291c-3.544-.231-4.844.148-6.277 1.828m26.533 14.713.274 16.75h4c3.9 0 4.008-.093 4.31-3.75.31-3.737.327-3.75 4.849-3.75 8.922 0 14.341-4.895 14.341-12.954 0-9.84-4.54-13.046-18.475-13.046h-9.573l.274 16.75M226 217.559c0 .857.457 1.276 1.016.931.559-.346.758-1.047.441-1.559-.857-1.387-1.457-1.129-1.457.628m67.212 4.204c-.73.243-1.212 2.358-1.212 5.32V232h3.8c4.482 0 6.2-1.407 6.2-5.078 0-3.741-4.723-6.514-8.788-5.159m-135.545.904c-.367.366-.667 2.352-.667 4.411v3.745l4.829-.246c7.004-.358 8.796-2.607 5.837-7.327-.811-1.294-8.822-1.761-9.999-.583M226 226c0 .55.45 1 1 1s1-.45 1-1-.45-1-1-1-1 .45-1 1m34.75 4.398c-1.804 3.784-1.474 4.602 1.858 4.602 3.116 0 3.78-1.502 2.221-5.023-1.672-3.778-2.097-3.734-4.079.421M189.5 230c-.349 1.1-1.04 2-1.536 2s-.653.647-.35 1.437c.834 2.173 3.559.685 2.848-1.555-.707-2.229 1.331-2.586 2.176-.382.605 1.575 3.362 2.112 3.362.655 0-1.172-3.418-4.155-4.761-4.155-.607 0-1.39.9-1.739 2m-24 2c-.34.55.335 1 1.5 1s1.84-.45 1.5-1c-.34-.55-1.015-1-1.5-1-.485 0-1.16.45-1.5 1m101.5 2c0 .55.477 1 1.059 1s.781-.45.441-1-.816-1-1.059-1-.441.45-.441 1m-101 1.393c0 .216.698.661 1.552.989.89.341 1.291.173.941-.393-.587-.951-2.493-1.406-2.493-.596m101.638 2.107c-.35.914-.001 1.5.893 1.5.808 0 1.469-.675 1.469-1.5s-.402-1.5-.893-1.5-1.152.675-1.469 1.5m-31.029.324c-.353.571-.154 1.339.441 1.707 1.486.918 2.012.188 1.021-1.417-.532-.859-1.047-.962-1.462-.29M177 239c0 .55.702 1 1.559 1s1.281-.45.941-1c-.34-.55-1.041-1-1.559-1s-.941.45-.941 1m11 13.5c0 .825.45 1.5 1 1.5s1-.675 1-1.5-.45-1.5-1-1.5-1 .675-1 1.5m16.188-.437c.24.721 1.028 1.509 1.75 1.75.75.25 1.125-.125.875-.875-.241-.722-1.029-1.51-1.75-1.75-.75-.25-1.125.125-.875.875m-23.591 2.781c-.346.56-.142 1.319.453 1.687 1.538.95 2.53-.351 1.246-1.635-.718-.718-1.277-.735-1.699-.052m57.956 3.071a1.116 1.116 0 0 0 .362 1.532c.521.322 1.21.159 1.532-.362a1.116 1.116 0 0 0-.362-1.532 1.116 1.116 0 0 0-1.532.362m27.447.144c0 .582.45.781 1 .441s1-.816 1-1.059-.45-.441-1-.441-1 .477-1 1.059m-94.5.941c-.34.55.084 1 .941 1s1.559-.45 1.559-1-.423-1-.941-1-1.219.45-1.559 1m37.333.684c-2.419 2.751-2.993 5.715-1.502 7.754 1.263 1.728 1.464 1.659 3.505-1.207 2.519-3.538 2.612-4.237.879-6.606-1.223-1.673-1.362-1.67-2.882.059m14.806 2.814c-.893 2.327-.832 2.502.861 2.502 1.683 0 1.873-.863.624-2.834-.675-1.064-.975-.997-1.485.332m21.361.395c0 1.166 2.921 2.274 4.09 1.551 1.763-1.089.881-2.444-1.59-2.444-1.375 0-2.5.402-2.5.893m-71.417 2.973c-.431.697-.513 1.537-.183 1.867.895.895 1.871-.421 1.387-1.871-.338-1.016-.574-1.016-1.204.004M234 269c0 1.131.667 2 1.535 2 1.225 0 1.319-.404.465-2-.589-1.1-1.28-2-1.535-2-.256 0-.465.9-.465 2m8.683.65c-1.025 1.025-.822 5.146.288 5.832 1.298.802 2.541-4.37 1.339-5.572-.519-.519-1.251-.636-1.627-.26M183.8 273.2c.933.933 1.467.933 2.4 0 .933-.933.667-1.2-1.2-1.2s-2.133.267-1.2 1.2m51.2 13.193c0 .216.675.652 1.5.969.825.316 1.5.139 1.5-.393 0-.533-.675-.969-1.5-.969s-1.5.177-1.5.393m-49 3.666c0 .582.45.781 1 .441s1-.816 1-1.059-.45-.441-1-.441-1 .477-1 1.059" fill-rule="evenodd"/><path fill="#2c054c" stroke="#2c054c" d="M213.534 45.014c-18.975 12.315-23.428 13.471-40.351 10.478-17.052-3.016-24.393 2.03-30.565 21.008-3.492 10.739-12.735 19.379-25.152 23.511-6.953 2.314-13.41 6.642-16.873 11.31-2.328 3.138-2.659 10.842-1.129 26.299.963 9.727-.766 16.539-6.11 24.076-17.391 24.525-17.35 24.3-6.81 37.416 13.112 16.317 14.738 22.484 12.021 45.59-1.539 13.086 4.151 20.625 19.496 25.833 13.646 4.632 20.93 12.096 25.07 25.688 4.81 15.794 14.01 21.422 29.702 18.172 14.809-3.067 27.3.269 39.811 10.632 13.197 10.932 20.848 10.605 34.378-1.468 11.238-10.027 18.06-11.609 39.209-9.09 13.382 1.594 21.659-3.348 26.335-15.724 6.115-16.185 17.144-26.342 32.709-30.122 9.021-2.191 14.458-12.484 13.152-24.9-2.295-21.814-.981-27.553 9.204-40.223 12.14-15.1 12.067-24.232-.301-37.685-9.604-10.447-10.991-16.419-8.914-38.385 1.63-17.234-2.207-22.044-23.888-29.952-7.58-2.764-16.479-12.106-19.983-20.978-5.334-13.504-5.919-14.621-9.133-17.443-6.1-5.356-9.757-5.79-26.503-3.15-12.349 1.948-23.185-1.379-32.409-9.949-13.566-12.605-14.938-12.644-32.966-.944M243 82c0 .55.477 1 1.059 1s.781-.45.441-1-.816-1-1.059-1-.441.45-.441 1m-44 1c0 .55.477 1 1.059 1s.781-.45.441-1-.816-1-1.059-1-.441.45-.441 1m-29.417 5.866c-.431.697-.513 1.537-.183 1.867.895.895 1.871-.421 1.387-1.871-.338-1.016-.574-1.016-1.204.004M276 89c0 .55.45 1 1 1s1-.45 1-1-.45-1-1-1-1 .45-1 1m-18 2.559c0 .857.45 1.281 1 .941.55-.34 1-1.041 1-1.559s-.45-.941-1-.941-1 .702-1 1.559M175 94c0 .55.45 1 1 1s1-.45 1-1-.45-1-1-1-1 .45-1 1m45.25.662c-1.697.685-1.575 1.999.25 2.7 2.503.96 4.755-.349 3.403-1.979-1.208-1.455-1.628-1.538-3.653-.721M210.5 98c.34.55 1.068 1 1.618 1s.722-.45.382-1c-.34-.55-1.068-1-1.618-1s-.722.45-.382 1m26.5 6c0 .55.477 1 1.059 1s.781-.45.441-1-.816-1-1.059-1-.441.45-.441 1m-23.417 2.866c-.431.697-.513 1.537-.183 1.867.895.895 1.871-.421 1.387-1.871-.338-1.016-.574-1.016-1.204.004M244 108c0 .55.45 1 1 1s1-.45 1-1-.45-1-1-1-1 .45-1 1m19.218 4.154c.246.741 1.25 1.501 2.23 1.692 1.14.22 1.621-.14 1.334-1-.246-.741-1.25-1.501-2.23-1.692-1.14-.22-1.621.14-1.334 1M199 113c0 .55.45 1 1 1s1-.45 1-1-.45-1-1-1-1 .45-1 1m14 1.5c0 .825.661 1.5 1.469 1.5.894 0 1.243-.586.893-1.5-.317-.825-.978-1.5-1.469-1.5-.491 0-.893.675-.893 1.5m56-.5c0 .55.45 1 1 1s1-.45 1-1-.45-1-1-1-1 .45-1 1m-26.457.931c-.74 1.197 1.141 2.382 2.473 1.559 1.119-.691.384-2.49-1.016-2.49-.485 0-1.141.419-1.457.931m3.606 5.393-1.127 4.476h-6.227c-5.431 0-6.506.325-8.416 2.546l-2.189 2.545-.614-2.445c-.586-2.335-.971-2.446-8.473-2.446-5.765 0-8.19.4-9.103 1.5-.685.825-.813 1.5-.284 1.5.528 0 .921 2.678.872 5.95-.096 6.472-1.545 9.161-3.888 7.216-.761-.632-1.669-.863-2.018-.515-1.682 1.683-9.993-9.678-8.99-12.29.421-1.097.185-1.487-.72-1.185-.741.247-2.05-.254-2.909-1.113-1.948-1.948-19.082-1.713-19.035.26.045 1.92 5.607 8.702 6.485 7.908.444-.402.486-.171.092.513-.406.706.444 2.764 1.962 4.755l2.678 3.511-4.318 4.745c-2.376 2.61-4.822 5.058-5.437 5.441-1.846 1.148-1.836 16.731.013 21.158 1.585 3.791 7.603 10.646 9.347 10.646.504 0 1.179 1.005 1.501 2.233.382 1.464.922 1.894 1.567 1.249.824-.824 6.046-.936 24.193-.519 1.112.026 1.492.735 1.227 2.287-.212 1.238.058 2.923.599 3.745 1.275 1.937 4.275-1.549 3.654-4.245-.573-2.485 8.904-2.517 11.641-.04 1.878 1.7 2.503 1.422 4.002-1.779.588-1.255 8.766.306 8.766 1.674 0 .767.675 1.395 1.5 1.395s1.5-.675 1.5-1.5c0-.841.892-1.5 2.032-1.5 2.612 0 3.655-2.89 3.381-9.367-.275-6.504 1.485-8.913 5.493-7.516 2.899 1.011 8.812 9.25 8.298 11.565-.162.733.807 1.752 2.153 2.264 1.347.512 2.744 1.408 3.105 1.992.379.614 4.231 1.062 9.128 1.062 9.424 0 11.264-1.258 7.753-5.301-7.705-8.871-10.789-16.572-6.151-15.359 1.393.364 1.81.108 1.431-.881-.295-.767-.059-1.69.523-2.05.583-.36 2.134-2.961 3.447-5.782 4.513-9.693 2.562-21.91-4.506-28.207-1.698-1.513-3.087-3.319-3.087-4.014 0-.767-1.279-1.25-3.25-1.228-1.788.02-8.25-.074-14.361-.208l-11.112-.244 1.079-2.859c.868-2.3.77-3.169-.5-4.44-1.44-1.44-1.68-1.183-2.707 2.897M257 117c0 .55.45 1 1 1s1-.45 1-1-.45-1-1-1-1 .45-1 1m-52.5 1c.34.55.816 1 1.059 1s.441-.45.441-1-.477-1-1.059-1-.781.45-.441 1m-13 1c.34.55 1.041 1 1.559 1s.941-.45.941-1-.702-1-1.559-1-1.281.45-.941 1m-23.312 1.063c.24.721 1.028 1.509 1.75 1.75.75.25 1.125-.125.875-.875-.241-.722-1.029-1.51-1.75-1.75-.75-.25-1.125.125-.875.875M211 120c0 .55.45 1 1 1s1-.45 1-1-.45-1-1-1-1 .45-1 1m71 1.286c0 2.761 1.332 3.604 2.559 1.618.373-.603-.051-1.824-.941-2.714-1.491-1.491-1.618-1.405-1.618 1.096m-59.333-.619c-1.151 1.15-.729 2.333.833 2.333.825 0 1.5-.675 1.5-1.5 0-1.562-1.183-1.984-2.333-.833M196 121.918c0 2.478 1.284 4.241 2.124 2.916 1.314-2.073 1.027-3.834-.624-3.834-.825 0-1.5.413-1.5.918m-37 1.141c0 .582.45.781 1 .441s1-.816 1-1.059-.45-.441-1-.441-1 .477-1 1.059m16-.059c0 .55.45 1 1 1s1-.45 1-1-.45-1-1-1-1 .45-1 1m-9 4c0 .55.45 1 1 1s1-.45 1-1-.45-1-1-1-1 .45-1 1m41 6.882c0 .55.45 1.278 1 1.618.55.34 1 .168 1-.382s-.45-1.278-1-1.618c-.55-.34-1-.168-1 .382m80 .118c0 .55.45 1 1 1s1-.45 1-1-.45-1-1-1-1 .45-1 1m5.459 2.067c-.363.586-.419 1.306-.126 1.6.717.716 2.667-.546 2.667-1.726 0-1.278-1.726-1.193-2.541.126M170 138c0 .55.45 1 1 1s1-.45 1-1-.45-1-1-1-1 .45-1 1m88.449 1.339c1.762 1.288 1.763 1.366.024 2.033-.994.381-2.272.229-2.84-.339-3.633-3.633-6.32.03-6.211 8.467l.078 6h8.224c10.164 0 13.785-2.302 11.214-7.129-1.114-2.09-1.158-2.792-.196-3.115 2.586-.869-.715-4.228-4.796-4.881-2.195-.351-4.232-1.029-4.527-1.506-.295-.478-1.046-.869-1.669-.869s-.308.603.699 1.339m-30.434 5.772c-.015 5.505-.065 5.602-2.621 5.113-1.579-.301-2.996.049-3.595.889-.791 1.111-.885 1.064-.472-.239.333-1.052-.339-2.014-1.906-2.728-2.202-1.003-2.421-.882-2.421 1.344 0 1.454.508 2.324 1.25 2.143.688-.168.912-.116.5.114-.412.231-.75 1.07-.75 1.864 0 1.769 7.182 1.342 7.784-.463 1.26-3.78 1.827.647 1.775 13.869-.05 12.657.148 14.739 1.262 13.25.726-.972 1.738-1.655 2.25-1.517.825.222 1.302-9.187 1.227-24.25-.057-11.436-.295-13.62-1.41-12.931-.611.378-1.504.067-1.984-.691-.558-.881-.879.646-.889 4.233M261 144c0 .55.45 1 1 1s1-.45 1-1-.45-1-1-1-1 .45-1 1m-27.303 1.393c-.409 1.041-.508 2.129-.221 2.417.913.912 1.715-.583 1.333-2.482-.35-1.74-.404-1.737-1.112.065M254 147.059c0 .582.45.781 1 .441s1-.816 1-1.059-.45-.441-1-.441-1 .477-1 1.059m-117 4.5c0 .857.45 1.281 1 .941.55-.34 1-1.041 1-1.559s-.45-.941-1-.941-1 .702-1 1.559m71.543.372c-.317.512-.118 1.213.441 1.559.559.345 1.016-.074 1.016-.931 0-1.757-.6-2.015-1.457-.628M158 153.5c0 .825.45 1.5 1 1.5s1-.675 1-1.5-.45-1.5-1-1.5-1 .675-1 1.5m41 1.5c0 .55.477 1 1.059 1s.781-.45.441-1-.816-1-1.059-1-.441.45-.441 1m96.583-.134c-.431.697-.513 1.537-.183 1.867.895.895 1.871-.421 1.387-1.871-.338-1.016-.574-1.016-1.204.004m-146.568 3.311c.032 2.739 1.874 4.492 2.969 2.823.541-.825.841-1.95.667-2.5-.487-1.539-3.653-1.82-3.636-.323m14.985.264c0 .857.45 1.559 1 1.559s1-.423 1-.941-.45-1.219-1-1.559c-.55-.34-1 .084-1 .941m29.352-.448c-2.561 1.034-2.914 1.559-3.788 5.639-.953 4.448 2.489 8.148 8.133 8.742 2.308.243 4.682.742 5.274 1.108.593.367.955.085.804-.626-.188-.883.713-1.204 2.842-1.013 3.66.329 4.121-.698 3.979-8.861l-.096-5.482-3.75-.31c-2.062-.171-3.75.08-3.75.559 0 .478-.635 1.738-1.412 2.8-1.363 1.863-1.456 1.835-2.661-.809-1.319-2.895-2.112-3.144-5.575-1.747M207 159c0 .55.45 1 1 1s1-.45 1-1-.45-1-1-1-1 .45-1 1m15.496 1.007c-.343.554.1 1.285.984 1.624 1.914.734 2.981-.075 2.061-1.564-.83-1.344-2.235-1.371-3.045-.06m-67.139 2.57c-1.278 1.951-1.46 3.228-.749 5.25 1.197 3.403 2.597 3.019 3.982-1.092 2.019-5.992-.179-8.818-3.233-4.158M262 162.059c0 .582.45.781 1 .441s1-.816 1-1.059-.45-.441-1-.441-1 .477-1 1.059m-33.306 1.58c-.799.799.104 2.361 1.365 2.361.518 0 .941-.675.941-1.5 0-1.546-1.18-1.987-2.306-.861m-81.151 1.292c-.74 1.197 1.141 2.382 2.473 1.559 1.119-.691.384-2.49-1.016-2.49-.485 0-1.141.419-1.457.931M266.5 165c.34.55.816 1 1.059 1s.441-.45.441-1-.477-1-1.059-1-.781.45-.441 1m24.5 2c0 .55.477 1 1.059 1s.781-.45.441-1-.816-1-1.059-1-.441.45-.441 1m-8.985 1.628c.031 1.72 1.729 3.595 2.349 2.592.338-.546-.056-1.549-.875-2.229-.819-.68-1.482-.843-1.474-.363M169 170c0 .55.45 1 1 1s1-.45 1-1-.45-1-1-1-1 .45-1 1m-22 4.427c0 .927.855 1.573 2.083 1.573 2.437 0 2.093-2.337-.416-2.823-.987-.192-1.667.318-1.667 1.25M289 174c0 .55.45 1 1 1s1-.45 1-1-.45-1-1-1-1 .45-1 1m-122 2.5c0 .825.45 1.5 1 1.5s1-.675 1-1.5-.45-1.5-1-1.5-1 .675-1 1.5m43-.5c0 .55.477 1 1.059 1s.781-.45.441-1-.816-1-1.059-1-.441.45-.441 1m-51.361 2.694c-1.126 1.126-.685 2.306.861 2.306.825 0 1.5-.423 1.5-.941 0-1.261-1.562-2.164-2.361-1.365M238 179c0 .55.45 1 1 1s1-.45 1-1-.45-1-1-1-1 .45-1 1m-36 1.559c0 .857.457 1.276 1.016.931.559-.346.758-1.047.441-1.559-.857-1.387-1.457-1.129-1.457.628m55.694.08c-.352.352-.412 1.008-.135 1.457.624 1.009 3.441.024 3.441-1.203 0-1.026-2.353-1.207-3.306-.254m42.876.248c-.301.487.082 1.409.852 2.048 1.559 1.294 3.155-.193 2.078-1.935-.765-1.238-2.2-1.294-2.93-.113M150.5 183c-.34.55.084 1 .941 1s1.559-.45 1.559-1-.423-1-.941-1-1.219.45-1.559 1m28.5 2.559c0 .857.457 1.276 1.016.931.559-.346.758-1.047.441-1.559-.857-1.387-1.457-1.129-1.457.628m-21.306.08c-.799.799.104 2.361 1.365 2.361.518 0 .941-.675.941-1.5 0-1.546-1.18-1.987-2.306-.861M150.5 190c-.34.55.11 1 1 1s1.34-.45 1-1c-.34-.55-.79-1-1-1-.21 0-.66.45-1 1m27.65-.05c.43 1.289 1.801 1.521 1.925.325.041-.399-.465-.905-1.125-1.125-.66-.22-1.02.14-.8.8M204 190c0 .55.675 1 1.5 1s1.5-.45 1.5-1-.675-1-1.5-1-1.5.45-1.5 1m80 0c0 .55.45 1 1 1s1-.45 1-1-.45-1-1-1-1 .45-1 1m20.5 0c-.34.55-.141 1 .441 1s1.059-.45 1.059-1-.198-1-.441-1-.719.45-1.059 1m-28.944.91c-.723 1.169.385 4.09 1.551 4.09.491 0 .893-1.125.893-2.5 0-2.471-1.355-3.353-2.444-1.59m14.944.09c.34.55.816 1 1.059 1s.441-.45.441-1-.477-1-1.059-1-.781.45-.441 1M125 193c0 .55.702 1 1.559 1s1.281-.45.941-1c-.34-.55-1.041-1-1.559-1s-.941.45-.941 1m59.583-.134c-.431.697-.513 1.537-.183 1.867.895.895 1.871-.421 1.387-1.871-.338-1.016-.574-1.016-1.204.004m61.542 1.878c-2.423 2.761-4.189 10.256-2.417 10.256 1.167 0 3.292-4.404 3.292-6.825 0-.951.701-2.73 1.557-3.952 2.184-3.119.431-2.743-2.432.521m-18.656-.694c-.95 1.538.351 2.53 1.635 1.246.718-.718.735-1.277.052-1.699-.56-.346-1.319-.142-1.687.453m-29.802.617c-1.151 1.15-.729 2.333.833 2.333.825 0 1.5-.675 1.5-1.5 0-1.562-1.183-1.984-2.333-.833m-35.979.979c-1.305 1.304-.682 2.354 1.395 2.354 1.164 0 1.909-.524 1.688-1.187-.487-1.462-2.157-2.094-3.083-1.167m69.489.91c.357 1.711 2.091 2.141 2.59.642.175-.523-.409-1.23-1.297-1.571-1.114-.428-1.515-.14-1.293.929M267.5 196c-.34.55.084 1 .941 1s1.559-.45 1.559-1-.423-1-.941-1-1.219.45-1.559 1m-62.947.915a1.116 1.116 0 0 0 .362 1.532c.521.322 1.21.159 1.532-.362a1.116 1.116 0 0 0-.362-1.532 1.116 1.116 0 0 0-1.532.362M274 198c0 .55.45 1 1 1s1-.45 1-1-.45-1-1-1-1 .45-1 1m29 1.559c0 .857.45 1.281 1 .941.55-.34 1-1.041 1-1.559s-.45-.941-1-.941-1 .702-1 1.559M153.5 201c-.34.55-.168 1 .382 1s1.278-.45 1.618-1c.34-.55.168-1-.382-1s-1.278.45-1.618 1m55.479 3.041c-1.702 3.337-1.863 4.394-.853 5.611 1.347 1.623 4.741-3.184 4.832-6.843.084-3.4-1.935-2.775-3.979 1.232M224 201.5c0 .825.45 1.5 1 1.5s1-.675 1-1.5-.45-1.5-1-1.5-1 .675-1 1.5m-28 .5c0 .55.45 1 1 1s1-.45 1-1-.45-1-1-1-1 .45-1 1m56 0c0 .55.45 1 1 1s1-.45 1-1-.45-1-1-1-1 .45-1 1m-36.457.931c-.74 1.197 1.141 2.382 2.473 1.559 1.119-.691.384-2.49-1.016-2.49-.485 0-1.141.419-1.457.931M294.5 203c.34.55.816 1 1.059 1s.441-.45.441-1-.477-1-1.059-1-.781.45-.441 1m-149.35.95c.43 1.289 1.801 1.521 1.925.325.041-.399-.465-.905-1.125-1.125-.66-.22-1.02.14-.8.8m15.489-.256c-1.126 1.126-.685 2.306.861 2.306.825 0 1.5-.423 1.5-.941 0-1.261-1.562-2.164-2.361-1.365M286 205c0 .55.45 1 1 1s1-.45 1-1-.45-1-1-1-1 .45-1 1m-49.447 1.915a1.116 1.116 0 0 0 .362 1.532c.521.322 1.21.159 1.532-.362a1.116 1.116 0 0 0-.362-1.532 1.116 1.116 0 0 0-1.532.362M153 208c0 .55.45 1 1 1s1-.45 1-1-.45-1-1-1-1 .45-1 1m27.5 0c.34.55 1.041 1 1.559 1s.941-.45.941-1-.702-1-1.559-1-1.281.45-.941 1m15.194-.361c-1.043 1.043.278 2.361 2.365 2.361 2.336 0 2.568-1.545.359-2.393-1.952-.749-1.942-.749-2.724.032M223 208c0 .55.45 1 1 1s1-.45 1-1-.45-1-1-1-1 .45-1 1m27.446.087c-1.03 1.668 1.287 3.58 2.667 2.2 1.154-1.154.432-3.287-1.113-3.287-.485 0-1.184.489-1.554 1.087m28.554 1.33c0 .87.712 1.583 1.583 1.583 1.766 0 1.459-2.153-.395-2.771-.654-.218-1.188.317-1.188 1.188m-107 1.524c0 .518.45 1.219 1 1.559.55.34 1-.084 1-.941s-.45-1.559-1-1.559-1 .423-1 .941m42.192.134c.197.591.786 1.075 1.308 1.075s1.111-.484 1.308-1.075c.197-.591-.391-1.075-1.308-1.075s-1.505.484-1.308 1.075m42.808.642c0 .614.47 1.273 1.044 1.464.574.192.124 1.335-1 2.542-1.124 1.206-2.044 2.882-2.044 3.723 0 .842-2.25 7.21-5 14.152-5.803 14.65-5.613 13.612-2.742 14.936 2.664 1.228 6.1-.172 8.368-3.411 2.312-3.301 12.6-3.117 14.135.252 2.234 4.903 12.077 3.96 10.2-.977-.536-1.411-.702-3.008-.368-3.548.334-.541-.081-1.516-.923-2.167-1.217-.941-9.67-19.611-9.67-21.358 0-.244.45-.165 1 .175.55.34 1 .141 1-.441s-.482-1.059-1.071-1.059c-.59 0-1.747-.675-2.572-1.5s-2.953-1.5-4.728-1.5c-1.776 0-3.769-.54-4.429-1.2-.834-.834-1.2-.859-1.2-.083m-108.565 2.591c-.268.7-.364 8.454-.211 17.232l.276 15.96h9l.307-4.25c.415-5.722 2.831-5.636 6.98.25 3.041 4.315 3.379 4.5 8.192 4.5 2.762 0 5.088-.45 5.171-1 .418-2.783.252-3.5-.809-3.5-.638 0-2.14-1.246-3.338-2.769l-2.177-2.768 3.087-3.516c3.185-3.628 4.442-11.492 2.071-12.957-.559-.346-.798-.982-.531-1.414.763-1.235-3.812-5.032-7.255-6.019-5.001-1.434-20.186-1.251-20.763.251m34.259-.669c-.382.382-.694 8.269-.694 17.528V248h6.8c4.082 0 7.296.496 8.042 1.242.94.94 1.417.957 1.966.069.399-.645 2.742-1.317 5.208-1.492 3.999-.284 4.495-.59 4.584-2.819.055-1.375.389-3.625.741-5s.421-2.05.152-1.5c-.964 1.974-17.923.264-18.325-1.847-.314-1.645.289-1.824 5.49-1.631 8.787.326 8.493.48 8.149-4.272l-.307-4.25h-6.414c-3.991 0-6.561-.44-6.805-1.165-.546-1.626 2.124-2.282 9.969-2.449 3.713-.079 6.787-.423 6.833-.765.046-.342.244-1.521.441-2.621 1.168-6.538 2.256-5.973-12.08-6.278-7.18-.152-13.368.035-13.75.417m38.327.423c-1.364.574-3.22 1.713-4.125 2.532-.905.819-2.265 1.358-3.021 1.198-.756-.161-1.258.284-1.115.988.143.704-.419 2.594-1.25 4.201-4.969 9.609 1.964 23.413 12.768 25.419 2.078.385 3.514 1.128 3.191 1.651-.323.522-.11.949.472.949s1.059-.378 1.059-.84c0-.462 1.868-1.456 4.152-2.21 4.69-1.548 11.261-7.21 10.615-9.148-.982-2.948-7.43-4.194-9.882-1.91-5.624 5.24-13.817 1.258-13.708-6.664.102-7.353 7.378-10.725 13.223-6.128 3.747 2.947 13.033-.003 9.928-3.155-.644-.654-.921-1.843-.614-2.642.344-.897.027-1.34-.828-1.159-.762.162-2.678-.567-4.258-1.62-3.324-2.215-12.829-3.052-16.607-1.462m62.239.688c-.446.963-.739 2.425-.651 3.25.088.825.212 7.912.276 15.75L283 248h4.44c4.408 0 4.441-.026 4.75-3.75l.31-3.75 6.457-.617c5.745-.549 6.765-.985 9.243-3.954 6.649-7.964 3.443-19.163-6.283-21.953-6.051-1.735-17.719-1.251-18.657.774M193 215c0 .55.477 1 1.059 1s.781-.45.441-1-.816-1-1.059-1-.441.45-.441 1m56 0c0 .55.477 1 1.059 1s.781-.45.441-1-.816-1-1.059-1-.441.45-.441 1m-91.188 10.48c-.229 1.97-.206 3.792.052 4.051 1.153 1.152 8.985.356 10.136-1.031.846-1.019.889-1.5.134-1.5-.611 0-1.003-1.012-.872-2.25.212-2.008-.261-2.282-4.397-2.55l-4.634-.3-.419 3.58M248 223.059c0 .582.45.781 1 .441s1-.816 1-1.059-.45-.441-1-.441-1 .477-1 1.059m44.195 3.684c.323 5.027.062 4.851 6.536 4.409 6.056-.413 3.362-9.152-2.821-9.152h-4.02l.305 4.743M225.5 226c.34.55 1.041 1 1.559 1s.941-.45.941-1-.702-1-1.559-1-1.281.45-.941 1m35.722 4.264c-1.581 4.371-1.627 4.213 1.279 4.38 2.849.165 3.477-2.925 1.221-6.01-1.16-1.585-1.393-1.433-2.5 1.63M202.5 229c.34.55.816 1 1.059 1s.441-.45.441-1-.477-1-1.059-1-.781.45-.441 1m43.053-.085a1.116 1.116 0 0 0 .362 1.532c.521.322 1.21.159 1.532-.362a1.116 1.116 0 0 0-.362-1.532 1.116 1.116 0 0 0-1.532.362M194.5 232c-.34.55-.141 1 .441 1s1.059-.45 1.059-1-.198-1-.441-1-.719.45-1.059 1m43.5 2.059c0 .582.45.781 1 .441s1-.816 1-1.059-.45-.441-1-.441-1 .477-1 1.059m-60.591 4.317c-.847 2.208.28 3.335 1.808 1.807.902-.902.905-1.461.016-2.35-.89-.89-1.324-.761-1.824.543M221.5 240c-.34.55-.141 1 .441 1s1.059-.45 1.059-1-.198-1-.441-1-.719.45-1.059 1m41.5 7c0 .55.45 1 1 1s1-.45 1-1-.45-1-1-1-1 .45-1 1m-75.349 4.468c-.633 1.648.841 2.964 2.305 2.059 1.062-.656.283-3.527-.956-3.527-.432 0-1.04.661-1.349 1.468m15.349.41c0 .482.694 1.453 1.542 2.157 1.76 1.46 4.159-.092 3.012-1.948-.801-1.295-4.554-1.468-4.554-.209m-22.771 3.31c.618 1.854 2.771 2.161 2.771.395 0-.87-.713-1.583-1.583-1.583-.871 0-1.406.534-1.188 1.188M196 256.441c0 .857.45 1.559 1 1.559s1-.423 1-.941-.45-1.219-1-1.559c-.55-.34-1 .084-1 .941m36-.441c0 .55.45 1 1 1s1-.45 1-1-.45-1-1-1-1 .45-1 1m34 1.5c0 .825.45 1.5 1 1.5s1-.675 1-1.5-.45-1.5-1-1.5-1 .675-1 1.5m-57.885 2.542c-2.453 4.024-2.625 5.879-.78 8.402 1.246 1.704 1.479 1.592 3.5-1.677 2.527-4.089 2.677-5.685.777-8.284-1.32-1.804-1.493-1.727-3.497 1.559M238 258.5c0 .825.675 1.5 1.5 1.5s1.5-.675 1.5-1.5-.675-1.5-1.5-1.5-1.5.675-1.5 1.5m-88 .441c0 .518.45 1.219 1 1.559.55.34 1-.084 1-.941s-.45-1.559-1-1.559-1 .423-1 .941m21 .059c0 .55.675 1 1.5 1s1.5-.45 1.5-1-.675-1-1.5-1-1.5.45-1.5 1m17 1c0 .55.45 1 1 1s1-.45 1-1-.45-1-1-1-1 .45-1 1m35.4 2.4c-.366.954-.171 2.229.434 2.834.8.8 1.282.627 1.766-.634.366-.954.171-2.229-.434-2.834-.8-.8-1.282-.627-1.766.634m21.131.55c-.765 1.237 1.62 2.371 3.963 1.885.887-.184 1.602-.785 1.59-1.335-.03-1.388-4.746-1.855-5.553-.55M173 266.5c0 .917.484 1.505 1.075 1.308.591-.197 1.075-.786 1.075-1.308s-.484-1.111-1.075-1.308c-.591-.197-1.075.391-1.075 1.308m27.5.5c.34.55.816 1 1.059 1s.441-.45.441-1-.477-1-1.059-1-.781.45-.441 1m33.727 1.281c.15 1.53.712 2.801 1.248 2.825 1.631.074 1.638-1.577.016-3.646-1.477-1.884-1.526-1.853-1.264.821m8.327.997a352.07 352.07 0 0 0-.995 3.149c-.491 1.591 1.753 3.928 2.783 2.898.954-.954.779-4.585-.304-6.297-.796-1.259-1.011-1.222-1.484.25m-58.866 2.368c-1.305 1.304-.682 2.354 1.395 2.354 1.164 0 1.909-.524 1.688-1.187-.487-1.462-2.157-2.094-3.083-1.167m15.855 2.285c-.317.512-.118 1.213.441 1.559.559.345 1.016-.074 1.016-.931 0-1.757-.6-2.015-1.457-.628m54.607.019c.43 1.289 1.801 1.521 1.925.325.041-.399-.465-.905-1.125-1.125-.66-.22-1.02.14-.8.8M175.5 285c.34.55.816 1 1.059 1s.441-.45.441-1-.477-1-1.059-1-.781.45-.441 1m60 2c.34.55 1.041 1 1.559 1s.941-.45.941-1-.702-1-1.559-1-1.281.45-.941 1m-49.903 1.844c-.346.56-.142 1.319.453 1.687 1.538.95 2.53-.351 1.246-1.635-.718-.718-1.277-.735-1.699-.052M263 295.059c0 .582.45.781 1 .441s1-.816 1-1.059-.45-.441-1-.441-1 .477-1 1.059" fill-rule="evenodd"/></svg>